<svg width="87" height="22" viewBox="0 0 87 22" fill="none" xmlns="http://www.w3.org/2000/svg">
<path fill-rule="evenodd" clip-rule="evenodd" d="M77.7018 16.4057C77.2611 16.4057 76.8865 16.0533 76.8865 15.5908V1.80505C76.8865 1.36461 77.2611 0.990234 77.7018 0.990234C78.1426 0.990234 78.5172 1.34259 78.5172 1.80505V15.5908C78.5172 16.0533 78.1426 16.4057 77.7018 16.4057ZM45.1506 14.2255C45.4371 13.8951 45.8999 13.8511 46.2304 14.1154C46.561 14.3796 46.605 14.8421 46.3406 15.1724C45.5914 16.0973 44.3573 16.4057 43.2775 16.4057C42.5944 16.4057 41.9773 16.2735 41.5807 16.1194C40.3246 15.6129 39.6194 14.4897 39.6194 13.0363V1.82708C39.6194 1.38664 39.95 1.0563 40.3687 1.0563C40.8094 1.0563 41.1399 1.40866 41.1399 1.82708V5.92317H44.7319C45.1947 5.92317 45.5473 6.29755 45.5473 6.73799C45.5473 7.20045 45.1727 7.5528 44.7319 7.5528H41.1399V13.0363C41.1399 13.8731 41.4705 14.4457 42.1536 14.71C42.6164 14.9082 44.4234 15.1284 45.1506 14.2255ZM73.1613 15.6128C73.1613 16.0532 73.5359 16.4276 73.9767 16.4276C74.4174 16.4276 74.792 16.0532 74.792 15.6128V5.59277C74.792 5.13031 74.4174 4.77795 73.9767 4.77795C73.5139 4.77795 73.1613 5.15233 73.1613 5.59277V15.6128ZM33.7593 16.4716C33.5169 16.4716 33.2524 16.4496 33.01 16.4276C30.3656 16.0972 28.779 14.864 28.779 13.1683C28.779 12.7279 29.1316 12.3535 29.5944 12.3535C30.0351 12.3535 30.4097 12.7279 30.4097 13.1683C30.4097 13.9611 31.5115 14.5997 33.2304 14.82C34.9493 15.0402 36.1613 14.1813 36.3376 13.5207C36.4478 13.1243 36.4037 12.7719 36.2274 12.4856C36.0291 12.1773 35.6985 11.9791 35.1917 11.869C31.7319 11.2524 29.4401 10.6798 29.1095 8.49965C28.9994 7.70686 29.2197 6.91406 29.7486 6.29745C30.4979 5.41657 31.798 4.91006 33.3186 4.91006C36.0952 4.91006 37.9022 6.14329 37.9022 8.08123C37.9022 8.52167 37.5276 8.89605 37.0868 8.89605C36.6461 8.89605 36.2715 8.52167 36.2715 8.08123C36.2715 6.93609 34.6848 6.53969 33.3186 6.53969C32.3049 6.53969 31.4234 6.848 30.9827 7.3545C30.7623 7.61877 30.6521 7.92708 30.7182 8.25741C30.8504 9.07222 31.5777 9.57873 35.5002 10.2614H35.5222C36.7122 10.5037 37.3292 11.1423 37.6157 11.6048C38.0344 12.2654 38.1446 13.0802 37.9242 13.9171C37.5276 15.2604 35.9409 16.4716 33.7593 16.4716ZM46.6495 10.702C46.6495 13.8732 49.2498 16.4718 52.4451 16.4718C54.4725 16.4718 56.4558 15.4147 57.3373 13.9172C57.5797 13.5428 57.4254 13.0363 57.0508 12.8161C56.6762 12.5959 56.1694 12.706 55.949 13.1024C55.332 14.1374 53.8775 14.8862 52.4451 14.8862C50.3076 14.8862 48.5226 13.2565 48.3022 11.1865H57.183C57.4475 11.1865 57.7119 11.0543 57.9103 10.8341C58.0425 10.68 58.2408 10.3717 58.1967 9.99729C57.8441 7.1124 55.354 4.93222 52.4451 4.93222C49.2498 4.93222 46.6495 7.5088 46.6495 10.702ZM56.4558 9.53482H48.4345C48.9413 7.79508 50.55 6.53983 52.4451 6.53983C54.3183 6.53983 55.949 7.79508 56.4558 9.53482ZM65.5154 4.91011C63.8847 4.91011 62.4082 5.5928 61.3505 6.67188V5.70291C61.3505 5.26247 60.9758 4.88809 60.5351 4.88809C60.0944 4.88809 59.7197 5.24044 59.7197 5.70291V19.5988C59.7197 20.0392 60.0723 20.4136 60.5351 20.4136C60.9758 20.4136 61.3505 20.0392 61.3505 19.5988V14.6879C62.4082 15.789 63.8847 16.4497 65.5154 16.4497C68.7107 16.4497 71.289 13.8511 71.289 10.6799C71.289 7.50871 68.7107 4.91011 65.5154 4.91011ZM65.5154 14.842C63.2236 14.842 61.3505 12.9702 61.3505 10.6799C61.3505 8.38959 63.2236 6.51772 65.5154 6.51772C67.8072 6.51772 69.6803 8.38959 69.6803 10.6799C69.6803 12.9702 67.8072 14.842 65.5154 14.842ZM83.2317 15.3486C83.9589 16.0313 84.7523 16.3836 85.5456 16.3836H85.6337H86.1847C86.6254 16.3616 87 16.0093 87 15.5688C87 15.1284 86.6254 14.754 86.1847 14.754H85.5897C85.193 14.776 84.7743 14.5778 84.3336 14.1594C83.9369 13.763 81.7773 11.6048 80.7416 10.5478L84.9947 6.40765C85.3252 6.09934 85.3252 5.57081 85.0167 5.2625C84.7082 4.93217 84.2013 4.93217 83.8708 5.24048L79.0227 9.97522C78.8685 10.1294 78.7803 10.3276 78.7803 10.5478C78.7803 10.768 78.8685 10.9662 79.0227 11.1204C79.1549 11.2745 82.6808 14.8201 83.2317 15.3486ZM75.0349 2.09134C75.0349 2.66391 74.5721 3.12637 73.9992 3.12637C73.4262 3.12637 72.9634 2.66391 72.9634 2.09134C72.9634 1.51877 73.4262 1.0563 73.9992 1.0563C74.5721 1.0563 75.0349 1.51877 75.0349 2.09134Z" fill="black"/>
<path d="M19.8771 5.79179L16.2631 2.15816C14.8528 0.770771 13.0017 0 11.0184 0C9.03506 0 7.18397 0.770771 5.79566 2.15816L2.18164 5.79179C0.771286 7.17918 0 9.02903 0 11.011C0 12.993 0.771285 14.8428 2.1596 16.2302L5.77362 19.8418C7.16194 21.2292 9.03506 22 10.9963 22C12.9135 22 14.7426 21.2733 16.1309 19.9299L19.8331 16.2302C21.2214 14.8428 21.9927 12.971 21.9927 11.011C22.0367 9.02903 21.2875 7.17918 19.8771 5.79179Z" fill="black"/>
<path d="M13.6846 17.3762C13.0015 18.0368 12.0539 18.4552 11.0402 18.4552C9.98245 18.4552 9.03487 18.0368 8.3297 17.3321L10.1147 15.5483C10.3571 15.7906 10.6656 15.9227 11.0402 15.9227C11.3928 15.9227 11.7234 15.7686 11.9658 15.5483L15.5798 11.9367C15.8222 11.6945 15.9544 11.3862 15.9544 11.0118C15.9544 10.6595 15.8001 10.3291 15.5798 10.0869C15.3374 9.84464 15.0289 9.7125 14.6542 9.7125C14.2796 9.7125 13.9711 9.86666 13.7287 10.0869L10.1147 13.7205C9.43153 14.4032 8.46192 14.8436 7.40415 14.8436C6.34639 14.8436 5.39881 14.4032 4.69364 13.7205C4.0105 13.0378 3.56976 12.0689 3.56976 11.0118C3.56976 9.95475 3.98846 9.0078 4.69364 8.30309L8.30766 4.69148C8.9908 4.0088 9.96041 3.56836 11.0182 3.56836C12.0759 3.56836 13.0235 3.98678 13.7287 4.69148L11.9437 6.47527C11.7013 6.23302 11.3928 6.10089 11.0182 6.10089C10.6436 6.10089 10.335 6.25505 10.0926 6.47527L6.47861 10.0869C6.23621 10.3291 6.10399 10.6374 6.10399 11.0118C6.10399 11.3642 6.25824 11.6945 6.47861 11.9367C6.72102 12.179 7.02953 12.3111 7.40415 12.3111C7.75674 12.3111 8.08729 12.1569 8.3297 11.9367L11.9437 8.32512C12.6269 7.64243 13.5965 7.20199 14.6542 7.20199C15.712 7.20199 16.6596 7.62041 17.3648 8.32512C18.0479 9.0078 18.4886 9.97677 18.4886 11.0338C18.4886 12.0909 18.0699 13.0378 17.3648 13.7425L13.6846 17.3762Z" fill="white"/>
</svg>
