<svg width="112" height="113" viewBox="0 0 112 113" fill="none" xmlns="http://www.w3.org/2000/svg">
<path d="M0.0183198 0.0582886C0.00203554 0.096283 -0.00339256 25.2989 0.00203554 56.0654L0.0183198 112.002H56.0092H112V56.0111V0.0202866L56.02 0.00400543C11.2653 -0.0068512 0.0346041 0.00400543 0.0183198 0.0582886ZM78.8886 22.2429C80.7233 22.4926 82.2486 22.878 83.7467 23.4697C88.3443 25.2881 91.7803 28.8272 93.3273 33.3271C93.9407 35.1129 94.2067 36.6274 94.261 38.6412C94.375 43.0054 93.2839 46.6259 91.0095 49.4323C90.559 49.9914 89.5222 51.0498 88.974 51.5167C88.7243 51.7284 88.5235 51.9129 88.5235 51.9346C88.5235 51.9509 88.8492 52.2277 89.24 52.5371C91.992 54.7192 93.805 57.4279 94.6301 60.5816C95.0209 62.1014 95.1892 63.3391 95.238 65.1032C95.3466 69.3371 94.223 73.0065 91.8346 76.1928C90.9498 77.3761 89.468 78.8146 88.2195 79.7102C84.6207 82.2777 79.8602 83.5641 74.8664 83.3145C70.2362 83.0865 66.366 81.7349 63.12 79.2217C62.3872 78.6571 60.927 77.2078 60.3462 76.4751C58.6581 74.3364 57.5453 71.8992 57.0188 69.1743C56.59 66.9705 56.6334 64.0067 57.1219 61.5858C57.6159 59.1486 58.6201 56.9665 60.0802 55.1426C60.7208 54.3501 61.8118 53.2699 62.7237 52.5426L63.4945 51.9292L63.158 51.6578C62.6532 51.2453 61.2961 49.8557 60.8945 49.3454C59.7763 47.9178 58.9078 46.208 58.403 44.4438C57.8819 42.6417 57.6484 40.6279 57.7082 38.4784C57.7841 35.8186 58.2835 33.7722 59.4289 31.449C62.0126 26.2 67.191 22.8454 73.759 22.1669C74.8718 22.0529 77.8138 22.0964 78.8886 22.2429ZM58.8698 28.5287C58.8589 28.5558 52.5623 42.3812 44.8816 59.2517L30.9151 89.9367H24.4393H17.9636L18.1427 89.5405C18.2404 89.3288 23.4677 78.1415 29.7534 64.6852C36.0446 51.2344 41.1905 40.2099 41.1905 40.1936C41.1905 40.1774 35.6972 40.1611 28.9772 40.1611H16.764V34.3259V28.4907H37.8305C49.414 28.4907 58.8806 28.507 58.8698 28.5287Z" fill="#7F08BC"/>
<path d="M74.5729 33.35C71.0826 33.9254 68.8517 36.444 68.5748 40.108C68.5368 40.6128 68.6183 41.7093 68.7431 42.3063C69.2588 44.8033 70.9361 46.7791 73.2213 47.5879C74.1875 47.9299 74.6923 48.0059 75.9842 48.0059C76.8852 48.0059 77.2598 47.9841 77.6289 47.9082C79.735 47.4793 81.3526 46.3449 82.3785 44.5807C82.8073 43.8425 83.1601 42.784 83.3175 41.7635C83.4207 41.1067 83.4044 39.69 83.2904 39.1038C82.7204 36.1726 80.7663 34.1316 77.8949 33.4477C77.3901 33.3283 77.1621 33.312 76.1742 33.2903C75.3654 33.2794 74.8986 33.2957 74.5729 33.35Z" fill="#7F08BC"/>
<path d="M74.8716 57.1497C73.178 57.3886 71.8264 58.04 70.7137 59.1527C70.1437 59.7281 69.7746 60.2383 69.4001 60.9766C68.4936 62.7841 68.3144 65.1725 68.9387 67.1374C69.7692 69.7592 71.821 71.4962 74.6273 71.9467C75.2298 72.0444 76.5814 72.0553 77.1785 71.9685C79.4909 71.6373 81.2604 70.4757 82.4058 68.5542C83.3394 66.9855 83.6379 64.8359 83.1983 62.8221C82.5578 59.8529 80.6036 57.8717 77.7105 57.2529C77.1405 57.128 75.4415 57.0683 74.8716 57.1497Z" fill="#7F08BC"/>
</svg>
