<svg width="130" height="109" viewBox="0 0 130 109" fill="none" xmlns="http://www.w3.org/2000/svg">
<g clip-path="url(#clip0_101:13)">
<path d="M127.494 38.5341C126.884 37.9976 126.183 37.5725 125.425 37.2782C125.029 37.1151 124.763 36.7376 124.742 36.3096L124.627 34.1049C124.514 31.948 122.672 30.2911 120.514 30.4042L113.505 30.7715L112.471 11.0361C112.358 8.88755 110.528 7.23499 108.378 7.34071L94.6752 8.05884L94.6735 8.02734L92.1523 8.15947C91.7894 8.17515 91.4351 8.0461 91.1674 7.80071C90.8997 7.55531 90.7405 7.21367 90.7249 6.85096C90.619 4.6298 88.7332 2.91406 86.5106 3.01663L77.2389 3.50253C75.0146 3.61911 73.3058 5.51575 73.4223 7.7388C73.4447 8.10116 73.3221 8.45757 73.0815 8.7296C72.8409 9.00163 72.5021 9.16701 72.1395 9.18935L70.2486 9.28845L28.3781 11.4828C26.6154 11.5666 24.9599 12.3529 23.7816 13.6658C22.6033 14.9787 22.0005 16.7087 22.1079 18.469L22.2463 21.1084C22.3387 22.8721 22.3435 24.8932 22.2693 27.0952C22.2782 27.2653 22.2553 27.4307 22.245 27.5955C21.4015 27.6397 20.7525 28.3571 20.7932 29.2002L21.0478 34.0569C21.1377 35.8055 21.9195 37.4467 23.2209 38.6189C24.5223 39.7912 26.2367 40.3983 27.9863 40.3066L30.1482 40.1933C30.9976 40.1488 31.7222 40.8008 31.7667 41.6497L32.4702 55.0733C32.5529 56.6528 31.3389 58.0003 29.7585 58.0831L27.2373 58.2153C23.6153 58.4328 20.8446 61.526 21.0276 65.1478L21.6878 77.7462C21.7635 79.3221 20.5522 80.6636 18.9758 80.7497L14.5701 80.9806C12.8193 81.0707 11.1761 81.853 10.003 83.1551C8.82992 84.4572 8.22316 86.1721 8.31652 87.9217L9.01706 101.289C9.20795 104.931 12.3173 107.729 15.9619 107.538L20.3298 107.309L122.507 102.194C126.345 101.993 128.115 99.9423 128.853 98.7035C129.795 96.9575 130.195 94.9705 130.001 92.9963L129.504 83.5097C129.48 81.5338 128.875 79.6086 127.766 77.9728C126.935 76.8288 124.96 74.9616 121.09 75.1644C120.239 75.2052 119.397 75.3598 118.586 75.6241L118.581 75.5233C118.243 75.5402 117.915 75.4022 117.692 75.1482C117.468 74.8943 117.372 74.5522 117.432 74.2191C117.577 73.3382 117.623 72.4438 117.57 71.5526L117.415 68.5857C117.262 65.6692 116.401 63.5857 114.771 62.1488C114.158 61.6125 113.458 61.1855 112.701 60.8866C112.304 60.7235 112.038 60.346 112.018 59.9181L111.948 58.5889C111.933 58.2938 112.036 58.0047 112.234 57.7856C112.433 57.5665 112.711 57.4356 113.006 57.4218L122.801 56.9085C124.99 56.8846 127.07 55.9465 128.537 54.3213C129.872 52.7859 130.474 50.6383 130.331 47.9108L130.175 44.9438C129.986 42.0545 129.123 39.9458 127.494 38.5341Z" fill="#FFC7EB"/>
<path d="M121.094 78.8718C122.594 78.7932 123.677 79.1976 124.315 80.0421C124.966 81.0408 125.302 82.211 125.281 83.4024L125.777 92.8512C125.925 94.038 125.713 95.2419 125.168 96.3066C124.633 97.2063 123.611 97.7084 122.085 97.7883C120.56 97.8683 119.502 97.4626 118.863 96.6118C118.216 95.6164 117.88 94.4511 117.898 93.2641L117.428 83.814C117.278 82.6256 117.495 81.4199 118.05 80.3578C118.571 79.4525 119.594 78.9504 121.094 78.8718ZM86.547 80.9161L87.4884 99.3615L84.7466 99.5052L83.9273 83.8705L81.3115 84.0076L81.8728 94.7163C81.965 96.4758 81.745 97.7865 81.2129 98.6481C80.6808 99.5098 79.7133 99.9816 78.3103 100.064L78.1644 97.2793C78.99 97.236 79.2281 96.4719 79.1436 94.8593L78.4351 81.3412L86.547 80.9161ZM45.5357 83.1033L49.1048 101.398L46.3567 101.542L45.8078 98.3055L43.2047 98.4419L42.9972 101.718L40.2352 101.838L41.8863 83.2945L45.5357 83.1033ZM20.5571 84.4123L21.5224 102.831L18.7869 102.975L17.9669 87.3274L15.3512 87.4644L16.1705 103.099L13.4287 103.243L12.4641 84.8365L20.5571 84.4123ZM91.3582 80.7018L91.6906 87.0451L92.5604 86.9995C93.9092 86.9288 94.844 87.1578 95.5925 87.8134C96.3411 88.469 96.7568 89.6473 96.8489 91.4048L97.022 94.3455C97.1068 95.9644 96.8458 97.134 96.214 97.862C95.4569 98.6411 94.4115 99.0731 93.325 99.0556L89.5684 99.2525L88.6038 80.8462L91.3582 80.7018ZM53.2064 82.7013C54.6246 82.6269 55.6588 82.9454 56.2969 83.6636C57.0006 84.5969 57.3758 85.7364 57.3642 86.9049L57.3972 87.5348C57.4989 89.475 56.9416 90.9002 55.944 91.2809C56.9759 91.5553 57.793 92.5547 57.8894 94.394L57.9868 96.2523C58.074 97.9153 57.8209 99.1161 57.2282 99.8672C56.4761 100.679 55.4088 101.124 54.3027 101.088L50.3445 101.295L49.3805 82.9018L53.2064 82.7013ZM36.6432 85.0347C37.8186 85.9969 38.5088 87.4286 38.5294 88.9469L38.6284 90.8366C38.7877 92.4003 38.2356 93.9528 37.1246 95.0654C35.9107 96.1728 34.3269 96.7874 32.6833 96.7888L29.1411 96.9745L29.4256 102.404L24.3455 102.671L23.3788 84.2266L32.0454 83.7724C33.6822 83.6023 35.3231 84.0528 36.6432 85.0347ZM104.107 79.9958L104.477 87.0635L109.797 86.7847L109.427 79.717L114.57 79.4474L115.537 97.8915L110.431 98.1591L110.053 90.9402L104.733 91.219L105.111 98.4379L100.031 98.7041L99.0647 80.26L104.107 79.9958ZM64.9468 82.0481L65.3029 90.6515L65.19 92.2365L65.3602 92.2276L70.8023 81.7412L75.4286 81.4988L76.3952 99.9428L71.5357 100.198L71.1391 91.4257L71.2657 89.6189L71.1522 89.6248L65.5668 100.51L60.8711 100.756L59.9044 82.3123L64.9468 82.0481ZM121.239 81.6372C120.268 81.688 120.098 82.2907 120.17 83.6829L120.665 93.1191C120.737 94.486 120.957 95.0808 121.941 95.0293C122.912 94.9784 123.073 94.4147 123.006 93.0458L122.508 83.5477C122.437 82.1808 122.209 81.5863 121.239 81.6372ZM92.8121 89.753L91.8541 89.8032L92.1958 96.3229L93.1034 96.2753C94.1119 96.2224 94.3392 95.7368 94.265 94.3195L94.169 92.0063C94.166 91.5372 94.1119 91.0699 94.0075 90.6125C93.9721 90.4343 93.8986 90.2658 93.792 90.1185C93.5443 89.8447 93.1788 89.7084 92.8121 89.753ZM53.6716 92.7833L52.6442 92.8372L52.9344 98.3742L54.1445 98.3107C55.0206 98.2648 55.3376 97.7997 55.2593 96.3068L55.1648 94.7453C55.0892 93.3028 54.7431 92.7272 53.6716 92.7833ZM43.8857 87.0744L43.3746 95.7738L45.3726 95.669L43.8857 87.0744ZM31.087 87.9157L28.6729 88.0422L28.9232 92.817L31.2616 92.6945C31.9049 92.7113 32.5305 92.4819 33.0103 92.0533C33.3898 91.6296 33.5696 91.0637 33.504 90.4988L33.4673 89.7996C33.4692 89.294 33.2685 88.8086 32.91 88.4518C32.4036 88.0271 31.7429 87.8328 31.087 87.9157ZM53.3437 85.3217L52.2533 85.3789L52.5072 90.223L53.6102 90.1652C54.0032 90.2018 54.3785 89.9941 54.5561 89.6419C54.6948 89.1125 54.7366 88.5625 54.6796 88.0184L54.6161 87.0489C54.5471 85.7324 54.2261 85.2755 53.3437 85.3217ZM73.3646 59.3602C74.8647 59.2816 75.9105 59.7005 76.5482 60.5324C77.1941 61.4774 77.5391 62.5954 77.538 63.7399L77.6146 65.2013L74.8665 65.3453L74.7922 63.928C74.7262 62.6681 74.4871 62.0869 73.5291 62.1371C72.5826 62.1867 72.4156 62.7504 72.4808 64.082L72.9834 73.6744C73.057 75.0791 73.2868 75.724 74.2511 75.6735C75.2155 75.6229 75.3716 74.9831 75.3055 73.7233L75.2223 72.1359L77.9704 71.9918L78.0556 73.617C78.1937 74.7385 77.9746 75.875 77.4295 76.865C76.8865 77.7209 75.8693 78.21 74.344 78.29C72.8187 78.3699 71.7994 77.9748 71.1769 77.1926C70.5216 76.2176 70.1851 75.0633 70.2138 73.889L69.7107 64.2891C69.5619 63.1047 69.779 61.9031 70.3329 60.8455C70.8605 59.9399 71.8645 59.4388 73.3646 59.3602ZM107.698 57.8198L108.03 64.1631L108.9 64.1175C110.249 64.0469 111.184 64.2758 111.932 64.9314C112.681 65.587 113.096 66.7653 113.188 68.5228L113.343 71.4771C113.428 73.0981 113.159 74.2703 112.535 74.9935C111.776 75.7738 110.729 76.2059 109.64 76.1875L105.909 76.3831L104.943 57.9642L107.698 57.8198ZM56.4975 60.4778L57.4641 78.9219L52.3965 79.1875L51.6481 64.9072L46.6499 65.1692L47.3983 79.4495L42.337 79.7147L41.3704 61.2706L56.4975 60.4778ZM61.9509 60.2173L62.4301 70.9303L64.3901 60.0895L67.7307 59.9144L68.7527 78.3303L66.0172 78.4737L65.5264 67.3002L63.2754 78.6174L60.1807 78.7796L59.2154 60.3607L61.9509 60.2173ZM27.8141 62.0064L28.2934 72.7193L30.2533 61.8785L33.5939 61.7034L34.6096 80.1197L31.8741 80.263L31.3834 69.0896L29.1323 80.4067L26.0439 80.5686L25.0786 62.1497L27.8141 62.0064ZM90.338 58.7043L96.5172 76.8752L91.3677 77.1451L90.4596 73.9271L85.0768 74.2092L84.5101 77.5045L79.3732 77.7737L83.6128 59.0568L90.338 58.7043ZM103.821 58.023L103.955 60.8079L101.434 60.94L102.253 76.5747L99.4985 76.719L98.6791 61.0844L96.1579 61.2165L96.012 58.4322L103.821 58.023ZM109.133 66.8846L108.175 66.9348L108.519 73.486L109.426 73.4384C110.435 73.3855 110.662 72.8999 110.588 71.4826L110.49 69.1379C110.487 68.6689 110.433 68.2015 110.329 67.7441C110.293 67.5659 110.22 67.3974 110.113 67.2501C109.866 66.9763 109.5 66.84 109.133 66.8846ZM87.3246 62.829L87.0346 62.8442L85.8044 70.0021L89.2962 69.8191L87.3246 62.829ZM52.2741 37.4165C54.9968 37.2696 57.0867 37.9539 58.544 39.4693C59.8567 40.9311 60.5877 42.8232 60.5987 44.7875L60.7931 48.4977C60.8891 49.8145 60.6997 51.1366 60.2378 52.3736C59.7731 53.5871 58.9447 54.6277 57.8659 55.3529C56.4986 56.2232 54.9203 56.7055 53.2999 56.7481C51.6783 56.891 50.0486 56.5852 48.5892 55.8644C47.437 55.2606 46.5031 54.311 45.9188 53.1492C45.3365 51.9853 45.011 50.7099 44.9644 49.4094L44.767 45.6424C44.5653 43.6795 45.0944 41.7111 46.2532 40.1134C47.5445 38.4624 49.5515 37.5634 52.2741 37.4165ZM75.7894 36.4052C77.2895 36.3266 78.3725 36.731 79.0105 37.5692C79.6575 38.5717 79.9937 39.7429 79.977 40.9358L80.4722 50.3846C80.6191 51.5713 80.407 52.7749 79.8633 53.8401C79.3293 54.746 78.3064 55.2481 76.7811 55.3281C75.2558 55.408 74.198 55.0023 73.5593 54.1515C72.9185 53.1493 72.5909 51.979 72.6184 50.7899L72.1235 41.3474C71.9746 40.157 72.1912 38.9495 72.7447 37.8849C73.2664 36.9859 74.2893 36.4838 75.7894 36.4052ZM95.6273 37.1026C96.803 38.0617 97.4935 39.4918 97.5132 41.0084L97.6122 42.8982C97.7717 44.4637 97.2199 46.0182 96.1088 47.1333C94.8928 48.2559 93.2989 48.8806 91.6436 48.8832L88.1265 49.0676L88.4111 54.4975L83.3296 54.7385L82.3627 36.2881L91.0292 35.8339C92.6669 35.6656 94.3081 36.1184 95.6273 37.1026ZM120.422 34.3314L120.754 40.6684L121.624 40.6229C122.973 40.5522 123.907 40.7811 124.656 41.4367C125.404 42.0923 125.82 43.2706 125.912 45.0218L126.042 47.9775C126.127 49.6027 125.857 50.7748 125.234 51.4939C124.478 52.2789 123.429 52.7138 122.339 52.6941L118.607 52.8897L117.642 34.4771L120.422 34.3314ZM66.2165 37.1722C67.6346 37.0979 68.6755 37.4223 69.3073 38.1409C70.0091 39.0724 70.3821 40.2102 70.368 41.3762L70.401 42.0061C70.5024 43.94 69.945 45.3651 68.9474 45.7459C69.9794 46.0203 70.7968 47.026 70.8932 48.8653L70.9909 50.7299C71.079 52.4097 70.826 53.6125 70.232 54.3385C69.4836 55.1556 68.4146 55.6041 67.3068 55.5656L63.3486 55.773L62.3843 37.3731L66.2165 37.1722ZM101.891 35.29L102.363 46.0033L104.323 35.1625L107.67 34.9871L108.686 53.4096L105.945 53.5533L105.454 42.3799L103.209 53.6967L100.114 53.8589L99.1487 35.4337L101.891 35.29ZM42.6531 38.3503L42.799 41.1345L38.7021 41.3492L39.5241 57.0343L36.7823 57.178L35.8144 38.7087L42.6531 38.3503ZM116.508 34.5366L116.653 37.3082L114.132 37.4403L114.952 53.0813L112.185 53.2263L111.365 37.5854L108.844 37.7175L108.698 34.9458L116.508 34.5366ZM75.9347 39.1769C74.964 39.2278 74.8053 39.8172 74.8786 41.2156L74.859 41.204L75.3532 50.6339C75.4252 52.0071 75.6523 52.6016 76.6355 52.5501C77.6188 52.4986 77.7652 51.9161 77.6916 50.5114L77.1981 41.0941C77.1261 39.7208 76.9053 39.126 75.9347 39.1769ZM66.6816 47.2543L65.648 47.3084L65.9385 52.8517L67.1486 52.7883C68.0248 52.7424 68.3417 52.2773 68.2638 50.7907L68.1686 49.2166C68.093 47.774 67.7468 47.1984 66.6816 47.2543ZM121.832 43.3912L120.899 43.4401L121.241 49.9535L122.148 49.9059C123.157 49.8531 123.384 49.3674 123.31 47.9501L123.189 45.6383C123.186 45.1713 123.132 44.706 123.027 44.2508C122.991 44.0707 122.918 43.9003 122.812 43.7504C122.561 43.4809 122.197 43.3473 121.832 43.3912ZM52.3909 41.6137C51.5576 41.6912 50.7981 42.1236 50.3063 42.8003C49.9333 43.5386 49.7836 44.3696 49.8754 45.1915L50.0999 49.475C50.0964 50.3153 50.38 51.1316 50.9038 51.7889C51.4542 52.3986 52.267 52.7024 53.0827 52.6033C53.9119 52.6159 54.6944 52.2207 55.1762 51.5461C55.629 50.8332 55.8255 49.9875 55.7331 49.1482L55.5093 44.8773C55.5141 43.9778 55.2143 43.103 54.6587 42.3953C54.0504 41.821 53.2241 41.5362 52.3909 41.6137ZM90.0721 40.0025L87.6581 40.129L87.907 44.8786L90.2454 44.756C90.8887 44.7729 91.5143 44.5435 91.9941 44.1148C92.3722 43.6903 92.5517 43.1251 92.4878 42.5604L92.4521 41.8801C92.4524 41.3766 92.252 40.8939 91.8952 40.5386C91.3887 40.1139 90.728 39.9196 90.0721 40.0025ZM66.3472 39.7867L65.2568 39.8439L65.5106 44.688L66.6073 44.6305C67.0003 44.6671 67.3757 44.4594 67.5532 44.1072C67.6922 43.58 67.7342 43.0321 67.6771 42.49L67.6199 41.5202C67.5506 40.1974 67.2359 39.7401 66.3472 39.7867ZM34.1793 15.2275L34.9993 30.8747L36.4679 30.7977L36.7247 35.6985L33.983 35.8422L33.872 33.7257L28.0355 34.0316L28.1464 36.1481L25.4046 36.2918L25.1478 31.391L25.4251 31.3765C25.7277 31.3606 25.9782 30.9559 26.1639 30.1566C26.3673 29.1711 26.4819 28.1694 26.5063 27.1635C26.5899 24.7778 26.5728 22.6438 26.4787 20.8485L26.1934 15.646L34.1793 15.2275ZM59.0829 13.935C60.5011 13.8606 61.5416 14.1788 62.1734 14.8973C62.8843 15.8389 63.2605 16.9907 63.2424 18.1701L63.2754 18.8C63.3771 20.7402 62.8197 22.1653 61.8221 22.5461C62.8541 22.8205 63.6775 23.8195 63.7739 25.6589L63.8703 27.4983C63.9574 29.1613 63.7044 30.362 63.1117 31.1132C62.3586 31.9232 61.292 32.3683 60.1862 32.334L56.2216 32.5418L55.257 14.1355L59.0829 13.935ZM70.3204 13.3334L73.8895 31.6285L71.1414 31.7725L70.5925 28.5356L67.9894 28.672L67.7819 31.9485L65.0212 32.0932L66.671 13.5247L70.3204 13.3334ZM80.499 12.7873L80.7979 20.541L80.6988 21.6642L85.3987 12.5748L85.3964 12.5307L90.7728 12.2489L91.7394 30.693L85.9344 30.9972L85.5805 23.038L85.687 21.8133L80.8824 31.1988L80.8857 31.2618L75.4526 31.5465L74.486 13.1025L80.499 12.7873ZM100.147 11.7829L100.279 14.5426L97.7574 14.6747L98.5781 30.3346L95.8237 30.4789L95.003 14.8191L92.4819 14.9512L92.3373 12.1922L100.147 11.7829ZM108.303 11.3555L108.447 14.1145L104.313 14.3312L104.568 19.2005L107.984 19.0215L108.13 21.8057L104.714 21.9847L104.987 27.1942L109.121 26.9775L109.268 29.7743L102.404 30.1341L101.439 11.7152L108.303 11.3555ZM48.8708 14.4449L54.7537 32.6313L48.6146 32.9531L47.8282 30.0066L43.5485 30.2308L43.1248 33.2408L37.0046 33.5615L40.9417 14.8604L48.8708 14.4449ZM59.5554 24.0356L58.5217 24.0897L58.8119 29.6267L60.0283 29.563C60.8981 29.5174 61.2151 29.0523 61.1368 27.5594L61.0423 25.9979C60.9667 24.5553 60.6206 23.9797 59.5554 24.0356ZM31.5764 18.1431L29.0805 18.274L29.2059 20.6677C29.3641 23.685 29.396 25.9825 29.3087 27.5725C29.3111 28.8497 28.9661 30.1036 28.3106 31.2L32.2499 30.9935L31.5764 18.1431ZM68.6717 17.3297L68.1603 26.0228L70.1583 25.9181L68.6717 17.3297ZM45.1546 19.1496L44.1955 25.6933L46.7545 25.5592L45.1546 19.1496ZM59.2212 16.5743L58.1308 16.6315L58.3847 21.4756L59.4877 21.4178C59.8807 21.4544 60.256 21.2467 60.4336 20.8945C60.5723 20.3651 60.6141 19.8151 60.5571 19.271L60.4936 18.3015C60.4246 16.985 60.1099 16.5278 59.2212 16.5743ZM80.6633 7.35915C80.6695 7.47884 80.7309 7.68407 80.7845 7.98445C80.8156 8.35626 81.039 8.68474 81.3735 8.85053C81.6169 8.95103 81.8822 8.98716 82.1437 8.95544C82.7362 8.92439 83.1061 8.74709 83.2594 8.41691C83.3259 8.24725 83.3655 8.06831 83.377 7.88648C83.3608 7.57782 83.4126 7.36034 83.4259 7.25226L86.6657 7.08248C86.7829 8.1128 86.5205 9.15054 85.9275 10.0015C85.2158 10.8936 83.9986 11.3848 82.2758 11.4751C80.595 11.5632 79.3324 11.1893 78.488 10.3535C77.8006 9.5734 77.4241 8.56807 77.4298 7.52861L80.6633 7.35915Z" fill="black"/>
</g>
<defs>
<clipPath id="clip0_101:13">
<rect width="124" height="101" fill="white" transform="translate(0 7.19531) rotate(-3.32634)"/>
</clipPath>
</defs>
</svg>
