<svg width="237" height="41" viewBox="0 0 237 41" fill="none" xmlns="http://www.w3.org/2000/svg">
<path d="M46.4959 16.1078H45.1394V8.38086H52.0985V16.1078H50.742V9.69444H46.4959V16.1078Z" fill="#B2B2B2"/>
<path d="M57.6279 8.38086C58.1867 8.38086 58.6791 8.49124 59.1057 8.71202C59.5321 8.93278 59.8592 9.23817 60.0871 9.6282C60.3226 10.0109 60.4403 10.4487 60.4403 10.9418C60.4403 11.4348 60.3226 11.8764 60.0871 12.2664C59.8592 12.6564 59.5321 12.9618 59.1057 13.1826C58.6791 13.396 58.1867 13.5027 57.6279 13.5027H55.5104V16.1078H54.1539V8.38086H57.6279ZM57.5729 12.2002C58.036 12.2002 58.4 12.0861 58.6645 11.858C58.9366 11.6225 59.0727 11.3171 59.0727 10.9418C59.0727 10.5665 58.9401 10.2648 58.6756 10.0366C58.4108 9.80851 58.0433 9.69444 57.5729 9.69444H55.5104V12.2002H57.5729Z" fill="#B2B2B2"/>
<path d="M63.3179 14.0988L67.8396 8.38086H69.0527V16.1078H67.7293V10.3788L63.2076 16.1078H61.9945V8.38086H63.3179V14.0988Z" fill="#B2B2B2"/>
<path d="M77.7893 14.8384H78.9362V17.9843H77.5686V16.1078H71.6463V17.9843H70.2787V14.8384H70.9294C71.1059 14.7059 71.2638 14.5256 71.4037 14.2975C71.5433 14.062 71.6316 13.7676 71.6682 13.4144L72.1206 8.38086H77.7893V14.8384ZM76.4217 14.8384V9.65028H73.3448L73.025 13.4144C73.0027 13.7382 72.9366 14.0215 72.8263 14.2644C72.7233 14.4998 72.5984 14.6912 72.4515 14.8384H76.4217Z" fill="#B2B2B2"/>
<path d="M85.0859 8.38086H86.5196L83.3544 14.2864C83.0896 14.7868 82.8397 15.1769 82.6044 15.4565C82.3765 15.7362 82.1263 15.9422 81.8545 16.0747C81.5897 16.1998 81.2737 16.2623 80.9059 16.2623C80.5899 16.2623 80.314 16.2108 80.0788 16.1078V14.8936C80.2921 14.9598 80.5162 14.9929 80.7517 14.9929C81.0458 14.9929 81.2919 14.9267 81.4905 14.7942C81.6889 14.6617 81.858 14.4667 81.9979 14.2092L82.1963 13.8449L79.1305 8.38086H80.6303L82.9023 12.5644L85.0859 8.38086Z" fill="#B2B2B2"/>
<path d="M91.9519 14.3196L95.1941 8.38086H96.2969V16.1078H94.9735V11.2288L92.2387 16.1078H91.5768L88.8858 11.284V16.1078H87.5624V8.38086H88.6875L91.9519 14.3196Z" fill="#B2B2B2"/>
<path d="M105.446 16.1078H103.99L103.284 14.4189H99.5233L98.8065 16.1078H97.3947L100.758 8.38086H102.082L105.446 16.1078ZM102.744 13.1495L101.398 10.0477L100.053 13.1495H102.744Z" fill="#B2B2B2"/>
<path d="M112.163 11.4937V8.38086H113.52V16.1078H112.163V12.8073H107.917V16.1078H106.561V8.38086H107.917V11.4937H112.163Z" fill="#B2B2B2"/>
<path d="M119.336 16.2626C118.527 16.2626 117.799 16.0859 117.152 15.7327C116.505 15.3721 116.002 14.8864 115.641 14.2756C115.281 13.6649 115.101 12.9878 115.101 12.2446C115.101 11.5013 115.281 10.8243 115.641 10.2135C116.002 9.6027 116.505 9.12068 117.152 8.76744C117.799 8.40687 118.527 8.22656 119.336 8.22656C120.145 8.22656 120.869 8.40687 121.509 8.76744C122.156 9.12068 122.659 9.6027 123.019 10.2135C123.387 10.8243 123.571 11.5013 123.571 12.2446C123.571 12.9878 123.387 13.6649 123.019 14.2756C122.659 14.8864 122.156 15.3721 121.509 15.7327C120.869 16.0859 120.145 16.2626 119.336 16.2626ZM119.336 14.9821C119.88 14.9821 120.369 14.8607 120.803 14.6178C121.244 14.375 121.589 14.0475 121.839 13.6354C122.09 13.2159 122.214 12.7523 122.214 12.2446C122.214 11.7368 122.09 11.2769 121.839 10.8648C121.589 10.4453 121.244 10.1141 120.803 9.87131C120.369 9.62844 119.88 9.50702 119.336 9.50702C118.785 9.50702 118.288 9.62844 117.847 9.87131C117.413 10.1141 117.072 10.4453 116.821 10.8648C116.579 11.2769 116.457 11.7368 116.457 12.2446C116.457 12.7523 116.579 13.2159 116.821 13.6354C117.072 14.0475 117.413 14.375 117.847 14.6178C118.288 14.8607 118.785 14.9821 119.336 14.9821Z" fill="#B2B2B2"/>
<path d="M129.704 14.0988L134.226 8.38086H135.439V16.1078H134.116V10.3788L129.594 16.1078H128.381V8.38086H129.704V14.0988Z" fill="#B2B2B2"/>
<path d="M144.451 16.2626C143.657 16.2626 142.94 16.0859 142.3 15.7327C141.661 15.3721 141.157 14.8864 140.789 14.2756C140.429 13.6649 140.249 12.9878 140.249 12.2446C140.249 11.5013 140.429 10.8243 140.789 10.2135C141.157 9.6027 141.661 9.12068 142.3 8.76744C142.94 8.40687 143.657 8.22656 144.451 8.22656C145.105 8.22656 145.704 8.35902 146.249 8.62394C146.793 8.88889 147.245 9.23841 147.605 9.6726C147.965 10.1068 148.208 10.5704 148.333 11.0634H146.932C146.763 10.6219 146.465 10.254 146.039 9.9596C145.613 9.6579 145.083 9.50702 144.451 9.50702C143.914 9.50702 143.429 9.62844 142.995 9.87131C142.561 10.1141 142.219 10.4453 141.969 10.8648C141.727 11.2842 141.605 11.7442 141.605 12.2446C141.605 12.745 141.727 13.2049 141.969 13.6244C142.219 14.0438 142.561 14.375 142.995 14.6178C143.429 14.8607 143.914 14.9821 144.451 14.9821C145.105 14.9821 145.646 14.8349 146.072 14.5406C146.506 14.2462 146.811 13.8746 146.987 13.4257H148.388C148.263 13.9334 148.017 14.4044 147.649 14.8386C147.289 15.2654 146.833 15.6113 146.282 15.8762C145.73 16.1338 145.12 16.2626 144.451 16.2626Z" fill="#B2B2B2"/>
<path d="M156.281 14.8384H157.428V17.9843H156.06V16.1078H150.138V17.9843H148.77V14.8384H149.421C149.598 14.7059 149.756 14.5256 149.895 14.2975C150.035 14.062 150.123 13.7676 150.16 13.4144L150.612 8.38086H156.281V14.8384ZM154.913 14.8384V9.65028H151.837L151.517 13.4144C151.494 13.7382 151.428 14.0215 151.318 14.2644C151.215 14.4998 151.09 14.6912 150.943 14.8384H154.913Z" fill="#B2B2B2"/>
<path d="M160.141 12.7962V14.8384H164.839V16.1078H158.784V8.38086H164.729V9.65028H160.141V11.5489H164.233V12.7962H160.141Z" fill="#B2B2B2"/>
<path d="M166.209 16.2623C165.989 16.2623 165.768 16.2402 165.547 16.1961V14.9156H165.856C166.231 14.9156 166.536 14.8016 166.772 14.5734C167.014 14.3453 167.154 13.9958 167.191 13.5248L167.599 8.38086H173.4V16.1078H172.043V9.69444H168.834L168.525 13.6793C168.459 14.5109 168.213 15.1511 167.786 15.6C167.367 16.0416 166.842 16.2623 166.209 16.2623Z" fill="#B2B2B2"/>
<path d="M182.548 16.1078H181.092L180.387 14.4189H176.626L175.909 16.1078H174.497L177.861 8.38086H179.184L182.548 16.1078ZM179.846 13.1495L178.501 10.0477L177.155 13.1495H179.846Z" fill="#B2B2B2"/>
<path d="M189.266 11.4937V8.38086H190.622V16.1078H189.266V12.8073H185.02V16.1078H183.663V8.38086H185.02V11.4937H189.266Z" fill="#B2B2B2"/>
<path d="M196.438 16.2626C195.63 16.2626 194.902 16.0859 194.255 15.7327C193.608 15.3721 193.104 14.8864 192.744 14.2756C192.384 13.6649 192.203 12.9878 192.203 12.2446C192.203 11.5013 192.384 10.8243 192.744 10.2135C193.104 9.6027 193.608 9.12068 194.255 8.76744C194.902 8.40687 195.63 8.22656 196.438 8.22656C197.247 8.22656 197.971 8.40687 198.611 8.76744C199.258 9.12068 199.762 9.6027 200.122 10.2135C200.49 10.8243 200.673 11.5013 200.673 12.2446C200.673 12.9878 200.49 13.6649 200.122 14.2756C199.762 14.8864 199.258 15.3721 198.611 15.7327C197.971 16.0859 197.247 16.2626 196.438 16.2626ZM196.438 14.9821C196.983 14.9821 197.472 14.8607 197.905 14.6178C198.346 14.375 198.692 14.0475 198.942 13.6354C199.192 13.2159 199.317 12.7523 199.317 12.2446C199.317 11.7368 199.192 11.2769 198.942 10.8648C198.692 10.4453 198.346 10.1141 197.905 9.87131C197.472 9.62844 196.983 9.50702 196.438 9.50702C195.887 9.50702 195.391 9.62844 194.95 9.87131C194.516 10.1141 194.174 10.4453 193.924 10.8648C193.681 11.2769 193.56 11.7368 193.56 12.2446C193.56 12.7523 193.681 13.2159 193.924 13.6354C194.174 14.0475 194.516 14.375 194.95 14.6178C195.391 14.8607 195.887 14.9821 196.438 14.9821Z" fill="#B2B2B2"/>
<path d="M50.4553 27.7489C50.8301 27.8667 51.1537 28.0874 51.4258 28.4112C51.6976 28.7277 51.8337 29.1398 51.8337 29.6474C51.8337 30.0521 51.7272 30.4276 51.5139 30.7734C51.3006 31.112 50.9919 31.3805 50.5875 31.5794C50.1905 31.7779 49.7273 31.8772 49.198 31.8772H45.1394V24.1504H49.1096C49.5801 24.1504 49.9956 24.2424 50.3558 24.4263C50.7163 24.6029 50.9919 24.8458 51.1829 25.1549C51.3816 25.4639 51.4808 25.8061 51.4808 26.1814C51.4808 26.6009 51.3816 26.9394 51.1829 27.197C50.9919 27.4472 50.7493 27.6312 50.4553 27.7489ZM46.4959 25.3205V27.2743H49.0104C49.3487 27.2743 49.617 27.1823 49.8154 26.9983C50.0213 26.8143 50.1243 26.5789 50.1243 26.2919C50.1243 26.0122 50.0213 25.7804 49.8154 25.5964C49.617 25.4125 49.3487 25.3205 49.0104 25.3205H46.4959ZM49.0985 30.7073C49.5251 30.7073 49.8595 30.6007 50.1021 30.3872C50.3523 30.1737 50.4772 29.894 50.4772 29.5481C50.4772 29.2023 50.3523 28.9264 50.1021 28.7203C49.8595 28.5069 49.5251 28.4002 49.0985 28.4002H46.4959V30.7073H49.0985Z" fill="#B2B2B2"/>
<path d="M60.337 32.0321C59.5432 32.0321 58.8263 31.8555 58.1864 31.5023C57.5468 31.1415 57.0433 30.656 56.6758 30.0451C56.3153 29.4345 56.1354 28.7573 56.1354 28.0141C56.1354 27.2708 56.3153 26.5938 56.6758 25.983C57.0433 25.3722 57.5468 24.8902 58.1864 24.537C58.8263 24.1764 59.5432 23.9961 60.337 23.9961C60.9915 23.9961 61.5907 24.1286 62.1347 24.3935C62.6789 24.6584 63.131 25.0079 63.4911 25.4421C63.8516 25.8763 64.0942 26.3399 64.2191 26.833H62.8185C62.6493 26.3914 62.3518 26.0235 61.9252 25.7291C61.4989 25.4274 60.9693 25.2766 60.337 25.2766C59.8004 25.2766 59.3153 25.398 58.8813 25.6408C58.4474 25.8837 58.1057 26.2148 57.8558 26.6343C57.613 27.0537 57.4918 27.5137 57.4918 28.0141C57.4918 28.5145 57.613 28.9744 57.8558 29.394C58.1057 29.8134 58.4474 30.1446 58.8813 30.3874C59.3153 30.6302 59.8004 30.7517 60.337 30.7517C60.9915 30.7517 61.5319 30.6044 61.9582 30.3101C62.3922 30.0158 62.6973 29.6441 62.8738 29.1952H64.2744C64.1492 29.703 63.9031 30.1739 63.5353 30.6082C63.1751 31.0349 62.7193 31.3808 62.1677 31.6458C61.6165 31.9032 61.0061 32.0321 60.337 32.0321Z" fill="#B2B2B2"/>
<path d="M68.8918 31.8772H67.5353V25.464H64.756V24.1504H71.682V25.464H68.8918V31.8772Z" fill="#B2B2B2"/>
<path d="M78.0637 24.1504H79.4974L76.3321 30.0559C76.0676 30.5564 75.8178 30.9465 75.5822 31.2259C75.3543 31.5056 75.1044 31.7118 74.8323 31.8441C74.5678 31.9692 74.2515 32.0319 73.884 32.0319C73.5677 32.0319 73.2921 31.9803 73.0569 31.8772V30.663C73.2702 30.7292 73.4943 30.7623 73.7295 30.7623C74.0236 30.7623 74.27 30.6961 74.4683 30.5638C74.667 30.4314 74.8361 30.2363 74.9757 29.9786L75.1744 29.6143L72.1083 24.1504H73.6081L75.8801 28.334L78.0637 24.1504Z" fill="#B2B2B2"/>
<path d="M86.5667 30.608H87.7137V33.7539H86.3461V31.8772H80.4238V33.7539H79.0562V30.608H79.7069C79.8833 30.4753 80.0416 30.2952 80.1812 30.0671C80.3211 29.8316 80.4091 29.5373 80.446 29.1839L80.8981 24.1504H86.5667V30.608ZM85.1992 30.608V25.4198H82.1223L81.8025 29.1839C81.7802 29.5077 81.7141 29.7909 81.6038 30.034C81.5011 30.2694 81.3759 30.4607 81.229 30.608H85.1992Z" fill="#B2B2B2"/>
<path d="M90.3936 29.8682L94.9153 24.1504H96.1284V31.8772H94.805V26.1484L90.2835 31.8772H89.0702V24.1504H90.3936V29.8682Z" fill="#B2B2B2"/>
<path d="M99.5052 29.8682L104.027 24.1504H105.24V31.8772H103.917V26.1484L99.3949 31.8772H98.1818V24.1504H99.5052V29.8682Z" fill="#B2B2B2"/>
<path d="M111.881 28.5658V30.608H116.579V31.8772H110.524V24.1504H116.469V25.4198H111.881V27.3184H115.972V28.5658H111.881Z" fill="#B2B2B2"/>
<path d="M123.551 27.7489C123.926 27.8667 124.25 28.0874 124.522 28.4112C124.794 28.7277 124.93 29.1398 124.93 29.6474C124.93 30.0521 124.823 30.4276 124.61 30.7734C124.397 31.112 124.088 31.3805 123.684 31.5794C123.287 31.7779 122.823 31.8772 122.294 31.8772H118.236V24.1504H122.206C122.676 24.1504 123.092 24.2424 123.452 24.4263C123.812 24.6029 124.088 24.8458 124.279 25.1549C124.478 25.4639 124.577 25.8061 124.577 26.1814C124.577 26.6009 124.478 26.9394 124.279 27.197C124.088 27.4472 123.845 27.6312 123.551 27.7489ZM119.592 25.3205V27.2743H122.107C122.445 27.2743 122.713 27.1823 122.911 26.9983C123.117 26.8143 123.22 26.5789 123.22 26.2919C123.22 26.0122 123.117 25.7804 122.911 25.5964C122.713 25.4125 122.445 25.3205 122.107 25.3205H119.592ZM122.195 30.7073C122.621 30.7073 122.956 30.6007 123.198 30.3872C123.448 30.1737 123.573 29.894 123.573 29.5481C123.573 29.2023 123.448 28.9264 123.198 28.7203C122.956 28.5069 122.621 28.4002 122.195 28.4002H119.592V30.7073H122.195Z" fill="#B2B2B2"/>
<path d="M127.831 31.8772H126.475V24.1504H132.154V25.464H127.831V31.8772Z" fill="#B2B2B2"/>
<path d="M134.799 28.5658V30.608H139.497V31.8772H133.443V24.1504H139.387V25.4198H134.799V27.3184H138.891V28.5658H134.799Z" fill="#B2B2B2"/>
<path d="M146.757 27.2632V24.1504H148.113V31.8772H146.757V28.5768H142.51V31.8772H141.154V24.1504H142.51V27.2632H146.757Z" fill="#B2B2B2"/>
<path d="M151.492 29.8682L156.014 24.1504H157.227V31.8772H155.903V26.1484L151.382 31.8772H150.168V24.1504H151.492V29.8682Z" fill="#B2B2B2"/>
<path d="M165.346 24.1504V31.8772H163.989V29.0184H162.147L160.217 31.8772H158.64L160.714 28.8638C160.155 28.6945 159.721 28.4075 159.412 28.0028C159.111 27.5981 158.96 27.1197 158.96 26.5678C158.96 26.0968 159.07 25.681 159.291 25.3205C159.519 24.9525 159.842 24.6655 160.261 24.4594C160.688 24.2534 161.184 24.1504 161.75 24.1504H165.346ZM160.328 26.6009C160.328 26.9468 160.445 27.2264 160.681 27.4399C160.923 27.6459 161.265 27.7489 161.706 27.7489H163.989V25.464H161.706C161.265 25.464 160.923 25.5707 160.681 25.7841C160.445 25.9901 160.328 26.2624 160.328 26.6009Z" fill="#B2B2B2"/>
<path d="M170.345 32.0319C170.124 32.0319 169.904 32.0099 169.683 31.9657V30.6853H169.992C170.367 30.6853 170.672 30.5711 170.907 30.3429C171.15 30.1148 171.29 29.7651 171.326 29.2942L171.734 24.1504H177.536V31.8772H176.179V25.464H172.97L172.661 29.4489C172.595 30.2803 172.348 30.9208 171.922 31.3694C171.503 31.811 170.977 32.0319 170.345 32.0319Z" fill="#B2B2B2"/>
<path d="M180.938 28.5658V30.608H185.636V31.8772H179.581V24.1504H185.526V25.4198H180.938V27.3184H185.029V28.5658H180.938Z" fill="#B2B2B2"/>
<path d="M188.649 31.8772H187.293V24.1504H194.252V31.8772H192.895V25.464H188.649V31.8772Z" fill="#B2B2B2"/>
<path d="M197.664 28.5654V30.6076H202.362V31.8769H196.307V24.1501H202.252V25.4195H197.664V27.3181H201.755V28.5654H197.664ZM197.994 23.4436C197.781 23.4436 197.605 23.3774 197.465 23.2449C197.326 23.1124 197.256 22.9469 197.256 22.7482C197.256 22.5568 197.326 22.3949 197.465 22.2625C197.612 22.1226 197.789 22.0527 197.994 22.0527C198.208 22.0527 198.384 22.119 198.524 22.2514C198.664 22.3839 198.734 22.5495 198.734 22.7482C198.734 22.9469 198.664 23.1124 198.524 23.2449C198.384 23.3774 198.208 23.4436 197.994 23.4436ZM200.564 23.4436C200.351 23.4436 200.175 23.3774 200.035 23.2449C199.895 23.1124 199.825 22.9469 199.825 22.7482C199.825 22.5495 199.895 22.3839 200.035 22.2514C200.175 22.119 200.351 22.0527 200.564 22.0527C200.77 22.0527 200.943 22.1226 201.083 22.2625C201.23 22.3949 201.303 22.5568 201.303 22.7482C201.303 22.9469 201.233 23.1124 201.094 23.2449C200.954 23.3774 200.777 23.4436 200.564 23.4436Z" fill="#B2B2B2"/>
<path d="M207.57 27.9586L210.426 31.8772H208.838L206.787 28.9411L204.736 31.8772H203.18L206.026 27.9586L203.324 24.1504H204.912L206.831 26.9762L208.739 24.1504H210.283L207.57 27.9586Z" fill="#B2B2B2"/>
<path d="M212.967 29.8682L217.489 24.1504H218.702V31.8772H217.378V26.1484L212.857 31.8772H211.644V24.1504H212.967V29.8682Z" fill="#B2B2B2"/>
<path d="M226.358 27.2632V24.1504H227.714V31.8772H226.358V28.5768H222.112V31.8772H220.755V24.1504H222.112V27.2632H226.358Z" fill="#B2B2B2"/>
<path d="M236.872 31.8772H235.416L234.71 30.1883H230.95L230.233 31.8772H228.821L232.185 24.1504H233.508L236.872 31.8772ZM234.17 28.919L232.825 25.8172L231.479 28.919H234.17Z" fill="#B2B2B2"/>
<path d="M10.8814 0.999999C14.2845 2.25 17.1414 6.08335 17.6876 12.5H17.9397L18.3598 3.45832C16.9734 1.83333 14.2425 0 10.1252 0C3.52911 0 0 5.91668 0 11.9583C0 19.75 2.77288 27.25 7.35232 32.3751H8.52869C13.6123 32.3751 18.6119 27.5 19.3261 19.625H19.074C17.5195 27.7917 12.9401 29.0833 10.1672 29.4166C6.68012 24.6667 4.66349 18.5833 4.66349 13.25C4.66349 6.66666 6.51206 3.20834 10.8814 0.999999ZM30.4176 30.4999L28.317 31.6666V31.9167H37.3497V31.6666L35.2492 30.4999V1.91667L37.812 0.500001V0.25H21.6789V0.500001L24.3257 1.91667C24.2837 10.6667 24.1576 17.25 23.6955 22.2083C22.6032 33.4168 20.3764 36.1251 18.0657 36.1251C16.3432 36.1251 14.8727 34.7501 13.4442 33.1667L13.1922 33.4168L19.4102 41C20.6706 39.7501 22.3931 37.1249 23.4434 33.3333C24.8719 28.0833 25.418 19.375 25.7541 1.20833H30.4176V30.4999Z" fill="#B2B2B2"/>
</svg>
