<svg width="200" height="35" viewBox="0 0 200 35" fill="none" xmlns="http://www.w3.org/2000/svg">
<path d="M143.941 17.3696C142.731 21.4432 140.671 23.8873 137.76 23.9525C136.484 22.6164 134.783 19.7812 134.554 16.392H143.451V15.121C143.451 10.7868 141.684 7.82123 137.563 7.82123C134.26 7.82123 131.48 10.4609 131.48 14.8277C131.48 18.6732 132.854 22.6164 135.536 25.0605H136.55C140.442 25.0605 143.124 21.9646 144.137 17.3696H143.941ZM134.489 15.5121C134.522 12.3836 135.143 9.3203 138.152 8.24488C140.213 9.25512 140.671 11.5689 140.671 15.5121H134.489ZM116.043 17.3696C114.832 21.4432 112.772 23.8873 109.861 23.9525C108.586 22.6164 106.885 19.7812 106.656 16.392H115.552V15.121C115.552 10.7868 113.786 7.82123 109.665 7.82123C106.362 7.82123 103.581 10.4609 103.581 14.8277C103.581 18.6732 104.955 22.6164 107.637 25.0605H108.651C112.543 25.0605 115.225 21.9646 116.239 17.3696H116.043ZM106.59 15.5121C106.623 12.3836 107.245 9.3203 110.254 8.24488C112.314 9.25512 112.772 11.5689 112.772 15.5121H106.59ZM168.504 23.594V8.01676H167.98L161.603 19.6182V9.22253L163.205 8.31006V8.11453H157.22V8.31006L158.757 9.22253V25.1909H159.346L165.658 13.8501V23.594L164.121 24.5065V24.702H170.106V24.5065L168.504 23.594ZM91.8072 19.2598C90.9241 24.148 89.8448 26.0708 88.6019 26.0708C87.6534 26.0708 86.9012 24.1806 86.4433 22.9749L86.1816 23.04L88.5692 30.5028C91.9707 26.8529 93.2462 22.4209 94.2274 0.651769H97.0402V23.6592L95.503 24.5717V24.7672H102.404V24.5717L100.801 23.6592V1.30354L102.764 0.195531V0H91.2838V0.195531L93.2789 1.30354C92.821 10.3305 92.3959 15.9683 91.8072 19.2598ZM118.332 9.22253V23.6592L116.795 24.5717V24.7672H122.878V24.5717L121.276 23.6592V8.89665H125.789V23.6592L124.252 24.5717V24.7672H130.335V24.5717L128.733 23.6592V9.22253L130.335 8.31006V8.11453H116.729V8.31006L118.332 9.22253ZM188.684 22.2905C188.226 21.7039 187.899 20.4655 187.899 19.3901C187.899 15.5773 190.123 14.1108 193.034 14.013V19.6182L188.684 22.2905ZM195.846 21.0196V11.8296C195.846 9.25512 194.473 7.82123 191.758 7.82123C189.174 7.82123 187.212 8.99441 186.132 10.9497L186.296 11.0149C187.637 9.12477 189.632 8.50559 191.366 8.50559C192.772 9.25512 193.001 10.4935 193.001 11.9274V13.4264C188.684 13.4264 185.348 16.0661 185.348 19.9767C185.348 22.1927 185.773 23.1052 186.885 24.9302L193.001 20.433V22.649C193.001 24.1806 193.949 24.9302 193.949 24.9302L200 20.3026L199.935 20.2048L199.542 20.433C198.005 21.3129 197.187 21.9972 196.37 21.9972C195.977 21.9972 195.846 21.6061 195.846 21.0196ZM172.461 9.25512V23.6592L170.924 24.5717V24.7672H176.909V24.5717L175.307 23.6592V16.4572H180.343V23.6592L178.806 24.5717V24.7672H184.792V24.5717L183.189 23.6266V9.22253L184.792 8.34264V8.14711H178.806V8.34264L180.343 9.25512V15.675H175.307V9.25512L176.909 8.34264V8.14711H170.924V8.34264L172.461 9.25512ZM153.197 9.28771L150.81 14.7952L147.964 9.28771L149.567 8.37523V8.1797H142.927V8.37523L144.89 9.3203L148.847 16.7179L145.282 23.594L142.96 24.5717V24.7672H148.291V24.5717L146.231 23.6266L149.37 17.5652L152.674 23.6592L151.071 24.5717V24.7672H157.449V24.5717L155.781 23.594L151.3 15.6099L154.146 9.28771L156.337 8.31006V8.11453H151.137V8.31006L153.197 9.28771ZM138.904 5.40968C139.657 5.40968 140.18 4.75791 140.18 3.9432C140.18 3.0959 139.657 2.50931 138.904 2.50931C138.283 2.50931 137.792 3.0959 137.792 3.9432C137.792 4.75791 138.283 5.40968 138.904 5.40968ZM135.045 5.40968C135.765 5.40968 136.255 4.75791 136.255 3.9432C136.255 3.0959 135.765 2.50931 135.045 2.50931C134.391 2.50931 133.835 3.0959 133.835 3.9432C133.835 4.75791 134.391 5.40968 135.045 5.40968ZM8.602 0.8473C11.4148 1.72719 13.4098 5.21415 13.835 10.2002H14.0313L14.2602 2.28119C13.0828 1.1406 11.2839 0 8.17682 0C3.69604 0 -0.0324929 4.33426 0.000213551 9.05959C0.03292 14.8277 1.73365 19.325 5.13512 25.1583H5.98549C10.4009 25.1583 14.064 21.4432 14.947 15.9683H14.7508C13.0501 21.8343 10.1065 21.8669 7.84975 22.2579C5.69113 18.6732 3.89228 13.2961 3.89228 9.90689C3.89228 4.75791 5.85466 1.6946 8.602 0.8473ZM77.0238 9.25512L78.6265 8.34264V8.14711H72.0525C69.8938 8.14711 67.4409 8.89665 67.4409 11.6667C67.4409 14.2086 69.2397 15.6099 70.9405 16.4246L67.9315 23.6266L66.4924 24.5717V24.7672H70.319L73.2299 17.1741L74.2438 17.5326V23.6592L72.7066 24.5717V24.7672H78.6265V24.5717L77.0238 23.6592V9.25512ZM64.4646 23.6592V8.04935H63.9413L57.5635 19.6182V9.22253L59.1661 8.34264V8.14711H53.1809V8.34264L54.7181 9.25512V25.2561H55.3068L61.6191 13.8827V23.6592L60.0819 24.5717V24.7672H66.0672V24.5717L64.4646 23.6592ZM50.4662 9.25512L52.3959 8.34264V8.14711H42.0934V8.34264L43.696 9.25512V15.6425C43.696 18.3473 43.3362 21.4106 41.7336 23.9851H39.575L39.8039 30.5028H40.0002L42.3223 24.7672H50.2046L52.5267 30.5028H52.723L52.9519 23.9851H50.4662V9.25512ZM39.575 9.12477L41.5374 8.34264V8.14711H36.337V8.34264L38.6592 9.15736L36.1408 20.6285L32.4777 9.12477L34.1457 8.34264V8.14711H27.6044V8.37523L29.436 9.25512L34.9307 25.5819C34.1457 29.8836 33.0337 31.1872 32.2487 31.1872C31.4965 31.1872 30.9732 30.1117 30.5153 28.906H30.2537L32.1506 35C33.7205 33.338 34.6036 31.6434 35.6502 26.9507L39.575 9.12477ZM23.0582 10.298C23.0582 9.25512 23.7124 8.92924 24.4646 8.92924C25.1515 8.92924 25.642 9.51583 25.9691 10.1024L27.6698 13.3287H27.8661L27.1138 8.14711H16.2226L15.4704 13.3287H15.6666L17.3673 10.1024C17.6944 9.51583 18.185 8.92924 18.8718 8.92924C19.6241 8.92924 20.2782 9.25512 20.2782 10.298V23.6592L18.1523 24.5717V24.7672H25.1842V24.5717L23.0582 23.6592V10.298ZM73.3934 16.6853C71.0386 15.8706 69.8938 14.3063 69.8938 11.9926C69.8938 10.1024 70.7115 8.70112 72.5758 8.70112C73.3934 8.70112 73.9494 9.027 74.2438 9.41806V16.9786L73.3934 16.6853ZM43.3035 23.9851C44.1212 21.8669 44.5137 18.6732 44.5137 15.6099V8.83147H47.5226V23.9851H43.3035Z" fill="black"/>
</svg>
