<svg width="103" height="32" viewBox="0 0 103 32" fill="none" xmlns="http://www.w3.org/2000/svg">
<rect width="103" height="32" rx="16" fill="black" fill-opacity="0.1"/>
<path fill-rule="evenodd" clip-rule="evenodd" d="M85.7018 21.4057C85.2611 21.4057 84.8865 21.0533 84.8865 20.5908V6.80505C84.8865 6.36461 85.2611 5.99023 85.7018 5.99023C86.1426 5.99023 86.5172 6.34259 86.5172 6.80505V20.5908C86.5172 21.0533 86.1426 21.4057 85.7018 21.4057ZM53.1506 19.2255C53.4371 18.8951 53.8999 18.8511 54.2304 19.1154C54.561 19.3796 54.605 19.8421 54.3406 20.1724C53.5914 21.0973 52.3573 21.4057 51.2775 21.4057C50.5944 21.4057 49.9773 21.2735 49.5807 21.1194C48.3246 20.6129 47.6194 19.4897 47.6194 18.0363V6.82708C47.6194 6.38664 47.95 6.0563 48.3687 6.0563C48.8094 6.0563 49.1399 6.40866 49.1399 6.82708V10.9232H52.7319C53.1947 10.9232 53.5473 11.2975 53.5473 11.738C53.5473 12.2004 53.1727 12.5528 52.7319 12.5528H49.1399V18.0363C49.1399 18.8731 49.4705 19.4457 50.1536 19.71C50.6164 19.9082 52.4234 20.1284 53.1506 19.2255ZM81.1613 20.6128C81.1613 21.0532 81.5359 21.4276 81.9767 21.4276C82.4174 21.4276 82.792 21.0532 82.792 20.6128V10.5928C82.792 10.1303 82.4174 9.77795 81.9767 9.77795C81.5139 9.77795 81.1613 10.1523 81.1613 10.5928V20.6128ZM41.7593 21.4716C41.5169 21.4716 41.2524 21.4496 41.01 21.4276C38.3656 21.0972 36.779 19.864 36.779 18.1683C36.779 17.7279 37.1316 17.3535 37.5944 17.3535C38.0351 17.3535 38.4097 17.7279 38.4097 18.1683C38.4097 18.9611 39.5115 19.5997 41.2304 19.82C42.9493 20.0402 44.1613 19.1813 44.3376 18.5207C44.4478 18.1243 44.4037 17.7719 44.2274 17.4856C44.0291 17.1773 43.6985 16.9791 43.1917 16.869C39.7319 16.2524 37.4401 15.6798 37.1095 13.4996C36.9994 12.7069 37.2197 11.9141 37.7486 11.2974C38.4979 10.4166 39.798 9.91006 41.3186 9.91006C44.0952 9.91006 45.9022 11.1433 45.9022 13.0812C45.9022 13.5217 45.5276 13.896 45.0868 13.896C44.6461 13.896 44.2715 13.5217 44.2715 13.0812C44.2715 11.9361 42.6848 11.5397 41.3186 11.5397C40.3049 11.5397 39.4234 11.848 38.9827 12.3545C38.7623 12.6188 38.6521 12.9271 38.7182 13.2574C38.8504 14.0722 39.5777 14.5787 43.5002 15.2614H43.5222C44.7122 15.5037 45.3292 16.1423 45.6157 16.6048C46.0344 17.2654 46.1446 18.0802 45.9242 18.9171C45.5276 20.2604 43.9409 21.4716 41.7593 21.4716ZM54.6495 15.702C54.6495 18.8732 57.2498 21.4718 60.4451 21.4718C62.4725 21.4718 64.4558 20.4147 65.3373 18.9172C65.5797 18.5428 65.4254 18.0363 65.0508 17.8161C64.6762 17.5959 64.1694 17.706 63.949 18.1024C63.332 19.1374 61.8775 19.8862 60.4451 19.8862C58.3076 19.8862 56.5226 18.2565 56.3022 16.1865H65.183C65.4475 16.1865 65.7119 16.0543 65.9103 15.8341C66.0425 15.68 66.2408 15.3717 66.1967 14.9973C65.8441 12.1124 63.354 9.93222 60.4451 9.93222C57.2498 9.93222 54.6495 12.5088 54.6495 15.702ZM64.4558 14.5348H56.4345C56.9413 12.7951 58.55 11.5398 60.4451 11.5398C62.3183 11.5398 63.949 12.7951 64.4558 14.5348ZM73.5154 9.91011C71.8847 9.91011 70.4082 10.5928 69.3505 11.6719V10.7029C69.3505 10.2625 68.9758 9.88809 68.5351 9.88809C68.0944 9.88809 67.7197 10.2404 67.7197 10.7029V24.5988C67.7197 25.0392 68.0723 25.4136 68.5351 25.4136C68.9758 25.4136 69.3505 25.0392 69.3505 24.5988V19.6879C70.4082 20.789 71.8847 21.4497 73.5154 21.4497C76.7107 21.4497 79.289 18.8511 79.289 15.6799C79.289 12.5087 76.7107 9.91011 73.5154 9.91011ZM73.5154 19.842C71.2236 19.842 69.3505 17.9702 69.3505 15.6799C69.3505 13.3896 71.2236 11.5177 73.5154 11.5177C75.8072 11.5177 77.6803 13.3896 77.6803 15.6799C77.6803 17.9702 75.8072 19.842 73.5154 19.842ZM91.2317 20.3486C91.9589 21.0313 92.7523 21.3836 93.5456 21.3836H93.6337H94.1847C94.6254 21.3616 95 21.0093 95 20.5688C95 20.1284 94.6254 19.754 94.1847 19.754H93.5897C93.193 19.776 92.7743 19.5778 92.3336 19.1594C91.9369 18.763 89.7773 16.6048 88.7416 15.5478L92.9947 11.4076C93.3252 11.0993 93.3252 10.5708 93.0167 10.2625C92.7082 9.93217 92.2013 9.93217 91.8708 10.2405L87.0227 14.9752C86.8685 15.1294 86.7803 15.3276 86.7803 15.5478C86.7803 15.768 86.8685 15.9662 87.0227 16.1204C87.1549 16.2745 90.6808 19.8201 91.2317 20.3486ZM83.0349 7.09134C83.0349 7.66391 82.5721 8.12637 81.9992 8.12637C81.4262 8.12637 80.9634 7.66391 80.9634 7.09134C80.9634 6.51877 81.4262 6.0563 81.9992 6.0563C82.5721 6.0563 83.0349 6.51877 83.0349 7.09134Z" fill="black"/>
<path d="M27.8771 10.7918L24.2631 7.15816C22.8528 5.77077 21.0017 5 19.0184 5C17.0351 5 15.184 5.77077 13.7957 7.15816L10.1816 10.7918C8.77129 12.1792 8 14.029 8 16.011C8 17.993 8.77129 19.8428 10.1596 21.2302L13.7736 24.8418C15.1619 26.2292 17.0351 27 18.9963 27C20.9135 27 22.7426 26.2733 24.1309 24.9299L27.8331 21.2302C29.2214 19.8428 29.9927 17.971 29.9927 16.011C30.0367 14.029 29.2875 12.1792 27.8771 10.7918Z" fill="black"/>
<path d="M21.6846 22.3762C21.0015 23.0368 20.0539 23.4552 19.0402 23.4552C17.9825 23.4552 17.0349 23.0368 16.3297 22.3321L18.1147 20.5483C18.3571 20.7906 18.6656 20.9227 19.0402 20.9227C19.3928 20.9227 19.7234 20.7686 19.9658 20.5483L23.5798 16.9367C23.8222 16.6945 23.9544 16.3862 23.9544 16.0118C23.9544 15.6595 23.8001 15.3291 23.5798 15.0869C23.3374 14.8446 23.0289 14.7125 22.6542 14.7125C22.2796 14.7125 21.9711 14.8667 21.7287 15.0869L18.1147 18.7205C17.4315 19.4032 16.4619 19.8436 15.4042 19.8436C14.3464 19.8436 13.3988 19.4032 12.6936 18.7205C12.0105 18.0378 11.5698 17.0689 11.5698 16.0118C11.5698 14.9547 11.9885 14.0078 12.6936 13.3031L16.3077 9.69148C16.9908 9.0088 17.9604 8.56836 19.0182 8.56836C20.0759 8.56836 21.0235 8.98678 21.7287 9.69148L19.9437 11.4753C19.7013 11.233 19.3928 11.1009 19.0182 11.1009C18.6436 11.1009 18.335 11.255 18.0926 11.4753L14.4786 15.0869C14.2362 15.3291 14.104 15.6374 14.104 16.0118C14.104 16.3642 14.2582 16.6945 14.4786 16.9367C14.721 17.179 15.0295 17.3111 15.4042 17.3111C15.7567 17.3111 16.0873 17.1569 16.3297 16.9367L19.9437 13.3251C20.6269 12.6424 21.5965 12.202 22.6542 12.202C23.712 12.202 24.6596 12.6204 25.3648 13.3251C26.0479 14.0078 26.4886 14.9768 26.4886 16.0338C26.4886 17.0909 26.0699 18.0378 25.3648 18.7425L21.6846 22.3762Z" fill="white"/>
</svg>
