<svg width="233" height="40" viewBox="0 0 233 40" fill="none" xmlns="http://www.w3.org/2000/svg">
<path d="M70.4356 24.8176C70.4356 27.8542 67.5715 30.0532 63.5405 30.0532H54.0996V11.2051H63.2222C67.1472 11.2051 69.9052 13.2993 69.9052 16.2312C69.9052 18.2207 68.8444 19.4773 67.2532 20.2103C68.9505 20.8386 70.4356 22.5139 70.4356 24.8176ZM58.2366 14.6606V18.7443H63.1162C64.6013 18.7443 65.556 17.9067 65.556 16.7548C65.556 15.603 64.4952 14.6606 63.1162 14.6606H58.2366ZM63.5405 26.5977C65.1317 26.5977 66.2986 25.6553 66.2986 24.2941C66.2986 22.9328 65.2378 21.9904 63.5405 21.9904H58.2366V26.5977H63.5405Z" fill="black"/>
<path d="M86.0289 29.9485L79.4524 22.514H78.3916V29.9485H74.1484V11.2051H78.3916V18.4302H79.4524L85.817 11.2051H90.8029L82.8468 20.2103L91.5449 29.9485H86.0289Z" fill="black"/>
<path d="M91.5449 20.6289C91.5449 14.9744 95.7887 10.8906 101.729 10.8906C107.669 10.8906 111.912 14.9744 111.912 20.6289C111.912 26.2833 107.669 30.367 101.729 30.367C95.7887 30.367 91.5449 26.2833 91.5449 20.6289ZM107.457 20.6289C107.457 17.0686 105.123 14.6603 101.729 14.6603C98.334 14.6603 96.0006 17.0686 96.0006 20.6289C96.0006 24.189 98.334 26.5975 101.729 26.5975C105.123 26.5975 107.457 24.189 107.457 20.6289Z" fill="black"/>
<path d="M128.142 11.2051H132.386V29.9485H128.142V22.4092H119.656V29.9485H115.413V11.2051H119.656V18.6396H128.142V11.2051Z" fill="black"/>
<path d="M141.508 29.9485V14.9747H134.931V11.2051H152.222V14.9747H145.644V29.9485H141.508Z" fill="black"/>
<path d="M170.466 19.477V29.9482H167.39L166.541 27.0163C165.587 28.587 163.571 30.367 160.495 30.367C156.676 30.367 153.918 27.854 153.918 24.3985C153.918 20.943 156.676 18.5346 162.298 18.5346H166.435C166.223 16.1262 164.95 14.4509 162.617 14.4509C160.707 14.4509 159.434 15.498 158.797 16.6498L154.979 16.0215C155.934 12.7755 159.222 10.8906 162.829 10.8906C167.496 10.8906 170.466 14.032 170.466 19.477ZM166.329 21.7807H162.405C159.222 21.7807 158.161 22.8278 158.161 24.189C158.161 25.7597 159.434 26.8069 161.555 26.8069C164.313 26.8069 166.329 24.8174 166.329 21.7807Z" fill="black"/>
<path d="M186.802 29.9485L180.226 22.514H179.165V29.9485H174.922V11.2051H179.165V18.4302H180.226L186.59 11.2051H191.576L183.621 20.2103L192.318 29.9485H186.802Z" fill="black"/>
<path d="M199.956 29.9485V14.9747H193.38V11.2051H210.671V14.9747H204.094V29.9485H199.956Z" fill="black"/>
<path d="M231.886 21.7807H216.611C217.036 24.7126 219.157 26.5975 222.339 26.5975C224.567 26.5975 226.265 25.655 227.219 24.2938L231.144 24.922C229.765 28.4823 226.052 30.367 222.021 30.367C216.293 30.367 212.156 26.2833 212.156 20.6289C212.156 14.9744 216.293 10.8906 222.021 10.8906C227.75 10.8906 231.886 14.9744 231.886 20.4195C231.992 20.943 231.886 21.3619 231.886 21.7807ZM216.929 18.5346H227.431C226.688 16.231 224.779 14.5555 222.127 14.5555C219.581 14.4509 217.566 16.1262 216.929 18.5346Z" fill="black"/>
<path d="M0 19.2C0 10.149 0 5.62355 2.84845 2.81177C5.6969 0 10.2814 0 19.4504 0H21.0713C30.2404 0 34.8248 0 37.6733 2.81177C40.5217 5.62355 40.5217 10.149 40.5217 19.2V20.8C40.5217 29.851 40.5217 34.3764 37.6733 37.1882C34.8248 40 30.2404 40 21.0713 40H19.4504C10.2814 40 5.6969 40 2.84845 37.1882C0 34.3764 0 29.851 0 20.8V19.2Z" fill="#0077FF"/>
<path d="M21.5607 28.816C12.3251 28.816 7.05738 22.566 6.83789 12.166H11.4641C11.6161 19.7993 15.0266 23.0327 17.728 23.6993V12.166H22.0843V18.7493C24.752 18.466 27.5544 15.466 28.4999 12.166H32.8561C32.13 16.2327 29.0909 19.2327 26.9297 20.466C29.0909 21.466 32.5523 24.0827 33.8693 28.816H29.074C28.0441 25.6493 25.478 23.1993 22.0843 22.866V28.816H21.5607Z" fill="white"/>
</svg>
