<svg width="112" height="113" fill="none" xmlns="http://www.w3.org/2000/svg"><path d="M.018.058C.002.096-.003 25.298.002 56.065l.016 55.937H112V.02L56.02.004C11.265-.006.035.004.018.058zm78.87 22.185c1.835.25 3.36.635 4.859 1.227 4.597 1.818 8.033 5.357 9.58 9.857.614 1.786.88 3.3.934 5.314.114 4.364-.977 7.985-3.251 10.791-.451.56-1.488 1.618-2.036 2.085-.25.211-.45.396-.45.418 0 .016.325.293.716.602 2.752 2.182 4.565 4.89 5.39 8.045.39 1.52.56 2.757.608 4.521.109 4.234-1.015 7.904-3.403 11.09-.885 1.183-2.367 2.622-3.615 3.517-3.6 2.568-8.36 3.854-13.354 3.605-4.63-.228-8.5-1.58-11.746-4.093-.733-.565-2.193-2.014-2.774-2.747-1.688-2.139-2.8-4.576-3.327-7.3-.429-2.204-.386-5.168.103-7.59.494-2.436 1.498-4.618 2.958-6.442.64-.793 1.732-1.873 2.644-2.6l.77-.614-.336-.271c-.505-.413-1.862-1.802-2.264-2.313a14.541 14.541 0 01-2.491-4.901c-.521-1.802-.755-3.816-.695-5.966.076-2.66.575-4.706 1.72-7.029 2.585-5.249 7.763-8.604 14.331-9.282 1.113-.114 4.055-.07 5.13.076zM58.87 28.529c-.011.027-6.308 13.852-13.988 30.723L30.915 89.937H17.964l.179-.397c.097-.211 5.325-11.399 11.61-24.855 6.292-13.45 11.438-24.475 11.438-24.491 0-.017-5.494-.033-12.214-.033H16.764v-11.67h21.067c11.583 0 21.05.016 21.039.038z" fill="#7F08BC"/><path d="M74.573 33.35c-3.49.575-5.721 3.094-5.998 6.758-.038.505.043 1.601.168 2.198.516 2.497 2.193 4.473 4.478 5.282.966.342 1.471.418 2.763.418.901 0 1.276-.022 1.645-.098 2.106-.429 3.724-1.563 4.75-3.327.428-.739.781-1.797.938-2.818.104-.656.087-2.073-.027-2.66-.57-2.93-2.524-4.971-5.395-5.655-.505-.12-.733-.136-1.72-.158-.81-.01-1.276.006-1.602.06zm.299 23.8c-1.694.239-3.046.89-4.158 2.003a6.682 6.682 0 00-1.314 1.824c-.906 1.807-1.086 4.196-.461 6.16.83 2.622 2.882 4.36 5.688 4.81.603.097 1.954.108 2.552.022 2.312-.332 4.081-1.493 5.227-3.415.933-1.569 1.232-3.718.792-5.732-.64-2.97-2.594-4.95-5.487-5.57-.57-.124-2.27-.184-2.84-.102z" fill="#7F08BC"/></svg>