<svg width="104" height="104" fill="none" xmlns="http://www.w3.org/2000/svg"><path fill="#00DF88" d="M0 0h104v104H0z"/><path fill="#fff" d="M17.333 38.133H31.2V52H17.333zM24.267 52h13.867v13.867H24.267zM31.2 65.867h13.867v13.867H31.2z"/><path fill="#fff" d="M45.066 65.867h13.867v13.867H45.066z"/><path fill="#fff" d="M38.133 79.734H52v13.867H38.133zM52 52h13.867v13.867H52zm6.933-13.867H72.8V52H58.933z"/><path fill="#fff" d="M65.867 24.268h13.867v13.867H65.867zM72.8 10.4h13.867v13.867H72.8z"/></svg>ht="13.8667" fill="white"/>
<rect x="51.9999" y="52" width="13.8667" height="13.8667" fill="white"/>
<rect x="58.9332" y="38.1328" width="13.8667" height="13.8667" fill="white"/>
<rect x="65.8666" y="24.2676" width="13.8667" height="13.8667" fill="white"/>
<rect x="72.7999" y="10.4004" width="13.8667" height="13.8667" fill="white"/>
</svg>
