<svg width="36" height="30" viewBox="0 0 36 30" fill="none" xmlns="http://www.w3.org/2000/svg">
<path d="M2.20816 20.2978C6.91336 20.5545 11.7478 23.0824 15.1718 26.3262C15.8227 26.9429 15.8769 28.064 16.3721 28.4601C16.541 28.5952 23.5972 23.6815 24.5077 23.2053C26.9701 21.9172 29.5145 20.5749 32.1364 19.631C32.9071 19.3536 33.5541 19.5432 33.8969 18.8574" stroke="#FF4000" stroke-width="3" stroke-linecap="round"/>
<path d="M21.4135 4.45457C21.3542 2.08524 21.2084 2.01168 19.0128 2.05391C16.9608 2.09337 15.3078 2.9748 14.1048 4.66796C12.3691 7.11079 11.7437 11.5946 12.3976 14.5374C12.8613 16.6238 14.1444 18.9494 16.5055 18.8586C18.0043 18.8009 19.9731 16.9909 19.9731 15.4976" stroke="#FF4000" stroke-width="3" stroke-linecap="round"/>
</svg>
