<svg width="30" height="43" fill="none" xmlns="http://www.w3.org/2000/svg"><path d="M1.242 1.034c.231.215.35.56.695.646 4.144 1.028 7.718.746 11.758 1.476 2.472.447 5.097.691 7.589 1.827 6.16 2.808.764 5.81-.03 6.286-4.209 2.524-11.05 4.165-17.636 4.837-4.126.42 7.532-1.51 11.457-2.123a80.813 80.813 0 014.213-.574c.64-.067 1.234-.253 2.04-.075.392.087-.26.326-.506.414-3.457 1.246-7.963 1.805-12.06 2.508-2.086.359-8.63 1.073-6.056 1.255 10.194.722-2.467-.907 12.548.475 2.294.21 4.616.157 7.12 1.037 1.066.375 1.777 1.527 1.539 2.006-.59 1.189-2.388 1.753-3.78 2.503-.082.045-7.37 2.878-7.497 4.119-.15 1.458 10.165 2.38 10.648 2.464 6.384 1.102 1.53 2.743-.264 3.34-2.046.68-4.31 1.192-6.536 1.731-2.004.486-4.122.875-6.15 1.342-.628.144-2.718.24-1.815.49 1.203.333 1.956-.118 2.93-.182 3.706-.245 8.236-.656 12.245-.572 4.744.099 6.914.967 3.675 2.646-1.88.975-4.25 1.515-6.458 2.235-.587.192 1.157.331 1.26.347" stroke="#FF4000" stroke-width="2" stroke-linecap="round"/></svg>