<svg width="120" height="96" fill="none" xmlns="http://www.w3.org/2000/svg"><path d="M113.153 76.335c1.563 0 2.665.478 3.282 1.388a6.19 6.19 0 01.821 3.537v9.822a6.168 6.168 0 01-.821 3.55c-.603.903-1.693 1.368-3.282 1.368-1.588 0-2.665-.478-3.282-1.395a6.197 6.197 0 01-.821-3.523l.027-9.822a6.1 6.1 0 01.833-3.55c.591-.91 1.681-1.375 3.243-1.375zm-35.993.242l-.026 19.174h-2.856V79.498h-2.724V90.63c0 1.83-.3 3.176-.9 4.04-.6.865-1.63 1.302-3.092 1.31v-2.894c.86 0 1.15-.78 1.15-2.456V76.577h8.448zm-42.716.04l2.711 19.16h-2.862l-.394-3.385h-2.71l-.395 3.385-2.875-.026 2.724-19.134h3.801zm-26.015 0v19.147h-2.85V79.498H2.857v16.253H0V76.617h8.429zm73.74 0v6.594h.905c1.405 0 2.364.288 3.105 1.008.742.72 1.11 1.965 1.11 3.792l.02 3.058c0 1.683-.335 2.881-1.031 3.602a4.103 4.103 0 01-3.066 1.08H79.3V76.617h2.868zm-39.736 0c1.477 0 2.534.386 3.158 1.165a5.49 5.49 0 01.932 3.419v.654c0 2.017-.657 3.465-1.713 3.805 1.056.34 1.85 1.421 1.85 3.333v1.932c0 1.729-.327 2.96-.984 3.706a3.977 3.977 0 01-3.105 1.107H38.45V76.617h3.984zm-17.33 1.519a5.337 5.337 0 011.746 4.158v1.965a5.429 5.429 0 01-1.792 4.302 6.87 6.87 0 01-4.707 1.545h-3.69v5.645h-5.29V76.577h9.026a6.838 6.838 0 014.707 1.559zm70.346-1.559v7.348h5.54v-7.348h5.357v19.174h-5.318v-7.504h-5.54v7.504h-5.291V76.577h5.252zm-40.786 0l-.098 8.939-.204 1.637h.177l6.224-10.576h4.818v19.174h-5.061l.065-9.115.23-1.867h-.118l-6.394 10.982h-4.89V76.577h5.251zm58.49 2.633c-1.011 0-1.221.615-1.221 2.063v9.81c0 1.42.197 2.049 1.221 2.049 1.012 0 1.21-.576 1.215-1.999V81.26c0-1.422-.204-2.05-1.215-2.05zm-29.967 6.87h-.998v6.777h.945c1.05 0 1.313-.491 1.313-1.965l.027-2.403a6.679 6.679 0 00-.092-1.454 1.308 1.308 0 00-.197-.524 1.183 1.183 0 00-.998-.432zm-40.818 1.014h-1.07v5.756h1.26c.913 0 1.267-.465 1.267-2.017l-.013-1.624c0-1.5-.328-2.115-1.444-2.115zm-9.854-6.45l-1.004 8.99h2.08l-1.076-8.99zm-13.339.177h-2.514v4.963h2.435a2.63 2.63 0 001.852-.57 2.06 2.06 0 00.597-1.584v-.727a1.962 1.962 0 00-.506-1.427 2.472 2.472 0 00-1.864-.655zm23.258-1.48h-1.135v5.035h1.148a.998.998 0 001.011-.49c.173-.542.247-1.11.217-1.677l-.013-1.008c0-1.37-.309-1.86-1.228-1.86zm22.208-25.827c1.563 0 2.626.49 3.243 1.388a5.882 5.882 0 01.853 3.379v1.52h-2.862v-1.474c0-1.31-.216-1.925-1.214-1.925-.986 0-1.19.575-1.195 1.959v9.972c0 1.46.204 2.141 1.208 2.141s1.201-.655 1.201-1.964v-1.65h2.862v1.689a5.569 5.569 0 01-.827 3.333c-.61.858-1.693 1.31-3.282 1.31s-2.626-.465-3.23-1.31a5.882 5.882 0 01-.82-3.477v-9.98c-.09-1.236.2-2.47.833-3.536.598-.91 1.668-1.375 3.23-1.375zm35.744.268v6.595h.906c1.405 0 2.363.288 3.105 1.008s1.109 1.965 1.109 3.792v3.07c0 1.686-.343 2.886-1.03 3.602a4.11 4.11 0 01-3.072 1.08h-3.887V53.783h2.869zm-53.324-.026V72.93h-5.278V58.085h-5.205V72.93h-5.272V53.756h15.755zm5.679.026l-.086 11.133 2.626-11.133h3.48l.058 19.148H55.97l.099-11.61-2.954 11.61H49.89V53.782h2.849zm-35.554 0l-.085 11.133 2.626-11.133h3.479l.052 19.148H20.41l.099-11.61-2.954 11.61h-3.217V53.782h2.849zm65.12-.026l5.43 19.174h-5.364l-.768-3.386h-5.606l-.768 3.386h-5.35l5.422-19.174h7.004zm14.042.026l-.013 2.895h-2.626V72.93H90.84V56.677h-2.626v-2.895h8.134zm5.035 9.476h-.998v6.81h.945c1.051 0 1.313-.49 1.313-1.964l.027-2.436a6.743 6.743 0 00-.092-1.454 1.318 1.318 0 00-.197-.524 1.184 1.184 0 00-.998-.432zm-22.431-5.39h-.302l-1.668 7.354h3.637l-1.667-7.353zM43.93 29.618c2.836-.004 4.97.82 6.4 2.47a8.322 8.322 0 011.845 5.624v3.857a9.506 9.506 0 01-.788 3.988 6.554 6.554 0 01-2.626 2.96 9.314 9.314 0 01-4.818 1.199 9.248 9.248 0 01-4.844-1.172 6.461 6.461 0 01-2.626-2.96 9.416 9.416 0 01-.788-3.93V37.74a8.316 8.316 0 011.844-5.652c1.432-1.641 3.565-2.464 6.401-2.469zm24.48.23c1.562 0 2.664.478 3.282 1.382a6.274 6.274 0 01.82 3.542v9.823a6.203 6.203 0 01-.82 3.55c-.604.91-1.694 1.374-3.283 1.374-1.588 0-2.665-.478-3.282-1.395a6.201 6.201 0 01-.794-3.536v-9.816a6.13 6.13 0 01.833-3.556c.591-.903 1.68-1.368 3.243-1.368zm20.566 1.8a5.318 5.318 0 011.746 4.152v1.965a5.442 5.442 0 01-1.792 4.309 6.87 6.87 0 01-4.733 1.571h-3.663v5.645l-5.291-.026v-19.18h9.026a6.837 6.837 0 014.707 1.565zm25.904-1.525v6.588h.906c1.404 0 2.363.288 3.105 1.008.741.72 1.109 1.965 1.109 3.785l-.026 3.071c0 1.69-.344 2.89-1.031 3.602a4.082 4.082 0 01-3.072 1.087h-3.886V30.123h2.895zm-56.455 0c1.477 0 2.54.393 3.157 1.172a5.465 5.465 0 01.926 3.412v.654c0 2.01-.657 3.458-1.714 3.799 1.057.34 1.852 1.427 1.852 3.34v1.938c0 1.746-.329 2.98-.985 3.7a3.945 3.945 0 01-3.105 1.113h-4.123V30.123h3.992zm37.155-.013l-.092 11.132 2.626-11.132h3.486l.052 19.154h-2.856l.099-11.61-2.947 11.61h-3.224V30.11h2.856zm-61.694-.046v2.894H29.62v16.306h-2.855v-19.2h7.122zm76.917.059v2.881h-2.626v16.26h-2.882v-16.26h-2.625v-2.881h8.133zm-42.394 2.606c-1.01 0-1.208.602-1.208 2.056l-.02-.013v9.803c0 1.428.204 2.056 1.228 2.056s1.208-.596 1.208-2.056v-9.79c0-1.427-.197-2.056-1.208-2.056zM58.36 40.6h-1.077v5.763h1.26c.913 0 1.268-.465 1.268-2.01l-.014-1.638c0-1.5-.328-2.115-1.437-2.115zm57.492-1.008h-.971v6.77h.945c1.05 0 1.313-.49 1.313-1.964v-2.403a6.558 6.558 0 00-.092-1.447 1.367 1.367 0 00-.197-.53 1.196 1.196 0 00-.998-.426zm-72.028-5.616a3.029 3.029 0 00-2.23 1.117 4.412 4.412 0 00-.578 2.456v4.453c-.049.87.201 1.732.71 2.442a2.629 2.629 0 002.218.963 2.629 2.629 0 002.232-.982c.51-.715.76-1.581.709-2.456v-4.44a4.131 4.131 0 00-.748-2.62 3.03 3.03 0 00-2.313-.933zm39.225.377h-2.514v4.938h2.435a2.63 2.63 0 001.852-.57c.415-.42.633-.996.597-1.585v-.707a1.962 1.962 0 00-.506-1.421 2.472 2.472 0 00-1.864-.655zm-24.63-1.513h-1.136v5.036h1.143a.998.998 0 001.01-.491 4.658 4.658 0 00.217-1.67l-.007-1.008c0-1.376-.302-1.867-1.227-1.867zM26.343 5.632v16.266h1.53v5.095h-2.856v-2.2H18.94v2.2h-2.856v-5.095h.289c.315 0 .597-.406.834-1.225.265-1.01.438-2.042.518-3.084.217-2.469.315-4.682.315-6.548l-.013-5.41h8.317zm25.937.013c1.477 0 2.54.386 3.158 1.165a5.49 5.49 0 01.932 3.451v.655c0 2.017-.657 3.464-1.714 3.805 1.057.34 1.858 1.42 1.858 3.333v1.912c0 1.729-.328 2.96-.985 3.707a3.99 3.99 0 01-3.105 1.106h-4.129V5.645h3.985zm11.705-.013l2.71 19.16h-2.861l-.394-3.385h-2.711l-.394 3.385h-2.876l2.725-19.16h3.8zm10.601-.013l-.111 8.054-.164 1.16 5.376-9.169V5.62h5.6v19.173H79.24l.065-8.27.178-1.264-5.501 9.469v.065h-5.66V5.62h6.263zm20.462.026l-.013 2.868h-2.626v16.28H89.54V8.512h-2.625V5.645h8.133zm8.495 0v2.868h-4.307v5.062h3.558v2.894h-3.558v5.416h4.307v2.907h-7.15V5.645h7.15zm-61.898-.026l5.12 19.173h-6.393l-.657-3.097h-4.457l-.604 3.097H28.28L33.387 5.62h8.258zm10.576 10.523h-1.077v5.756h1.267c.906 0 1.26-.465 1.26-2.017l-.012-1.624c0-1.5-.329-2.115-1.438-2.115zm-28.74-7.629h-2.6v2.488c0 3.137-.091 5.52-.268 7.164a7.303 7.303 0 01-1.234 3.707h4.102V8.513zm38.574 1.172L61.05 18.67h2.081l-1.076-8.985zm-24.526.61l-1.352 6.73h2.665l-1.313-6.73zM52.28 8.388h-1.136v5.035h1.15a.999.999 0 001.01-.49c.173-.542.246-1.11.217-1.677l-.013-1.009c0-1.368-.302-1.86-1.228-1.86zM75.052 0c0 .124.053.34.092.655.012.387.227.74.565.93.247.117.52.169.794.15.617 0 1.011-.163 1.189-.497.078-.173.129-.356.15-.544 0-.32.066-.543.086-.655h3.374a4.42 4.42 0 01-.926 2.986c-.787.887-2.078 1.33-3.873 1.33-1.75 0-3.041-.457-3.873-1.369A4.393 4.393 0 0171.685 0h3.367z" fill="#B3B3B3"/></svg>