<svg width="72" height="75" fill="none" xmlns="http://www.w3.org/2000/svg"><path d="M65.069 20.218L53.238 7.976C48.621 3.302 42.562.706 36.069.706c-6.492 0-12.552 2.596-17.097 7.27L7.142 20.218C2.525 24.892 0 31.123 0 37.8c0 6.677 2.525 12.91 7.07 17.584L18.9 67.552c4.545 4.674 10.677 7.27 17.097 7.27 6.276 0 12.264-2.448 16.808-6.973l12.12-12.465c4.544-4.674 7.069-10.98 7.069-17.583.144-6.677-2.308-12.91-6.925-17.584z" fill="#000"/><path d="M44.797 59.243c-2.236 2.226-5.338 3.635-8.656 3.635-3.463 0-6.565-1.41-8.873-3.784l5.843-6.009c.793.816 1.803 1.261 3.03 1.261 1.154 0 2.236-.52 3.03-1.261L51 40.917c.794-.816 1.226-1.854 1.226-3.116 0-1.187-.505-2.3-1.226-3.116-.793-.816-1.803-1.26-3.03-1.26-1.226 0-2.236.519-3.03 1.26L33.11 46.927c-2.237 2.3-5.41 3.784-8.873 3.784-3.463 0-6.565-1.484-8.873-3.784-2.237-2.3-3.68-5.564-3.68-9.126 0-3.56 1.371-6.751 3.68-9.125l11.83-12.168c2.237-2.3 5.41-3.783 8.873-3.783 3.463 0 6.565 1.41 8.873 3.783l-5.843 6.01c-.793-.816-1.803-1.261-3.03-1.261-1.226 0-2.236.519-3.03 1.26l-11.83 12.168c-.794.816-1.226 1.855-1.226 3.116 0 1.188.505 2.3 1.226 3.116.793.817 1.803 1.262 3.03 1.262 1.154 0 2.236-.52 3.03-1.262l11.83-12.167c2.236-2.3 5.41-3.784 8.873-3.784 3.463 0 6.565 1.41 8.873 3.784 2.236 2.3 3.68 5.564 3.68 9.126 0 3.56-1.371 6.751-3.68 9.125L44.797 59.243z" fill="#fff"/></svg>47 21.7018 37.2947 21.2567 36.0684 21.2567C34.842 21.2567 33.8321 21.776 33.0386 22.5179L21.2079 34.6854C20.4144 35.5015 19.9816 36.5402 19.9816 37.8015C19.9816 38.9885 20.4865 40.1014 21.2079 40.9175C22.0014 41.7336 23.0114 42.1788 24.2377 42.1788C25.3919 42.1788 26.474 41.6594 27.2675 40.9175L39.0982 28.75C41.3345 26.4501 44.5086 24.9663 47.9712 24.9663C51.4338 24.9663 54.5358 26.3759 56.8442 28.75C59.0805 31.05 60.5233 34.3144 60.5233 37.8756C60.5233 41.4369 59.1526 44.6271 56.8442 47.0012L44.7971 59.2429Z" fill="white"/>
</svg>
