<svg width="130" height="109" fill="none" xmlns="http://www.w3.org/2000/svg"><g clip-path="url(#clip0_101:13)"><path d="M127.494 38.534a6.933 6.933 0 00-2.069-1.256 1.106 1.106 0 01-.683-.968l-.115-2.205a3.913 3.913 0 00-4.113-3.7l-7.009.366-1.034-19.735a3.906 3.906 0 00-4.093-3.695l-13.703.718-.001-.032-2.522.132a1.37 1.37 0 01-1.427-1.308 4.032 4.032 0 00-4.214-3.834l-9.272.486a4.032 4.032 0 00-3.817 4.236 1.368 1.368 0 01-1.282 1.45l-1.891.1-41.87 2.194a6.597 6.597 0 00-6.271 6.986l.138 2.64c.093 1.763.098 3.784.023 5.986.01.17-.014.336-.024.5a1.533 1.533 0 00-1.452 1.605l.255 4.857a6.604 6.604 0 006.939 6.25l2.161-.114a1.54 1.54 0 011.619 1.457l.703 13.423a2.865 2.865 0 01-2.711 3.01l-2.522.132a6.613 6.613 0 00-6.21 6.933l.66 12.598a2.87 2.87 0 01-2.711 3.004l-4.406.23a6.604 6.604 0 00-6.253 6.942l.7 13.367a6.606 6.606 0 006.945 6.249l4.368-.229 102.177-5.115c3.838-.201 5.608-2.252 6.346-3.49a9.967 9.967 0 001.148-5.708l-.497-9.486a10.086 10.086 0 00-1.738-5.537c-.831-1.144-2.806-3.011-6.676-2.809a9.558 9.558 0 00-2.504.46l-.005-.1a1.11 1.11 0 01-1.149-1.305c.145-.88.191-1.775.138-2.666l-.155-2.967c-.153-2.917-1.014-5-2.644-6.437a7.109 7.109 0 00-2.07-1.262 1.103 1.103 0 01-.683-.969l-.07-1.33a1.114 1.114 0 011.058-1.166l9.795-.514a7.843 7.843 0 005.736-2.587c1.335-1.535 1.937-3.683 1.794-6.41l-.156-2.967c-.189-2.89-1.052-4.998-2.681-6.41z" fill="#FFC7EB"/><path d="M121.094 78.872c1.5-.079 2.583.326 3.221 1.17a5.96 5.96 0 01.966 3.36l.496 9.45a5.964 5.964 0 01-.609 3.455c-.535.9-1.557 1.401-3.083 1.481-1.525.08-2.583-.325-3.222-1.176a5.976 5.976 0 01-.965-3.348l-.47-9.45a5.874 5.874 0 01.622-3.456c.521-.906 1.544-1.408 3.044-1.486zm-34.547 2.044l.941 18.446-2.741.143-.82-15.634-2.616.137.562 10.708c.092 1.76-.128 3.07-.66 3.932-.532.862-1.5 1.334-2.903 1.416l-.146-2.785c.826-.043 1.064-.807.98-2.42l-.709-13.518 8.112-.425zm-41.011 2.187l3.569 18.295-2.748.144-.55-3.237-2.602.137-.208 3.276-2.762.12 1.651-18.543 3.65-.192zm-24.979 1.31l.965 18.418-2.735.144-.82-15.648-2.616.137.82 15.635-2.742.144-.965-18.406 8.093-.425zm70.801-3.711l.333 6.343.87-.046c1.348-.07 2.283.159 3.031.814.75.656 1.165 1.834 1.257 3.592l.173 2.94c.085 1.62-.176 2.789-.808 3.517a3.94 3.94 0 01-2.889 1.194l-3.757.197-.964-18.407 2.754-.144zm-38.152 2c1.419-.075 2.453.243 3.09.962a5.296 5.296 0 011.068 3.24l.033.63c.102 1.941-.455 3.366-1.453 3.747 1.032.274 1.849 1.274 1.945 3.113l.098 1.858c.087 1.663-.166 2.864-.759 3.615a3.818 3.818 0 01-2.925 1.221l-3.959.207-.964-18.393 3.826-.2zm-16.563 2.333a5.146 5.146 0 011.886 3.912l.1 1.89a5.234 5.234 0 01-1.504 4.228 6.598 6.598 0 01-4.442 1.724l-3.542.186.285 5.429-5.08.267-.967-18.444 8.666-.455a6.567 6.567 0 014.598 1.263zm67.464-5.04l.37 7.069 5.32-.28-.37-7.067 5.143-.27.967 18.444-5.106.268-.378-7.219-5.32.279.378 7.219-5.08.266-.966-18.444 5.042-.264zm-39.16 2.053l.356 8.603-.113 1.586.17-.01 5.442-10.486 4.627-.242.966 18.444-4.86.255-.396-8.772.127-1.807-.114.006-5.585 10.885-4.696.246-.967-18.444 5.043-.264zm56.292-.41c-.971.05-1.141.653-1.069 2.045l.495 9.436c.072 1.367.292 1.962 1.276 1.91.971-.05 1.132-.614 1.065-1.983l-.498-9.498c-.071-1.367-.299-1.962-1.269-1.91zm-28.427 8.115l-.958.05.342 6.52.907-.048c1.009-.053 1.236-.538 1.162-1.956l-.096-2.313a6.448 6.448 0 00-.162-1.394 1.262 1.262 0 00-.215-.493 1.136 1.136 0 00-.98-.366zm-39.14 3.03l-1.028.054.29 5.537 1.21-.063c.877-.046 1.194-.511 1.115-2.004l-.094-1.562c-.076-1.442-.422-2.018-1.493-1.962zm-9.786-5.709l-.511 8.7 1.998-.105-1.487-8.595zm-12.799.842l-2.414.126.25 4.775 2.339-.122a2.526 2.526 0 001.748-.642c.38-.423.56-.99.494-1.554l-.037-.7a1.892 1.892 0 00-.557-1.347 2.374 2.374 0 00-1.823-.536zm22.257-2.594l-1.09.057.253 4.844 1.103-.058a.96.96 0 00.946-.523c.139-.53.18-1.08.124-1.624l-.064-.97c-.069-1.316-.39-1.773-1.272-1.726zm20.02-25.962c1.5-.078 2.546.34 3.184 1.172.646.945.991 2.063.99 3.208l.077 1.461-2.748.144-.075-1.417c-.066-1.26-.305-1.841-1.263-1.79-.946.049-1.113.612-1.048 1.944l.502 9.592c.074 1.405.304 2.05 1.268 2 .965-.051 1.12-.69 1.054-1.95l-.083-1.588 2.748-.144.086 1.625a5.373 5.373 0 01-.626 3.248c-.544.856-1.56 1.345-3.086 1.425-1.525.08-2.545-.315-3.167-1.097a5.674 5.674 0 01-.963-3.304l-.503-9.6a5.85 5.85 0 01.622-3.444c.528-.905 1.532-1.406 3.032-1.485zm34.334-1.54l.332 6.343.87-.045c1.349-.071 2.284.158 3.032.813.749.656 1.164 1.834 1.256 3.592l.155 2.954c.085 1.621-.184 2.793-.808 3.516a3.945 3.945 0 01-2.895 1.195l-3.731.195-.966-18.419 2.755-.144zm-51.2 2.658l.966 18.444-5.067.266-.749-14.28-4.998.261.748 14.28-5.061.266-.967-18.444 15.128-.793zm5.453-.26l.48 10.712 1.96-10.84 3.34-.176 1.022 18.416-2.736.144-.49-11.174-2.252 11.317-3.094.163-.966-18.42 2.736-.143zm-34.137 1.788l.48 10.713 1.96-10.84 3.34-.176L34.61 80.12l-2.736.143-.49-11.173-2.252 11.317-3.088.162-.965-18.42 2.735-.143zm62.524-3.302l6.18 18.171-5.15.27-.908-3.218-5.383.282-.567 3.295-5.137.27 4.24-18.717 6.725-.353zm13.483-.681l.134 2.785-2.521.132.819 15.635-2.754.144-.82-15.635-2.521.133-.146-2.785 7.809-.409zm5.312 8.862l-.958.05.344 6.551.907-.048c1.009-.053 1.236-.538 1.162-1.955l-.098-2.345a6.474 6.474 0 00-.161-1.394 1.266 1.266 0 00-.216-.494 1.136 1.136 0 00-.98-.365zm-21.808-4.056l-.29.015-1.23 7.158 3.491-.183-1.971-6.99zm-35.05-25.413c2.722-.146 4.812.538 6.269 2.053a8.027 8.027 0 012.055 5.319l.194 3.71a9.173 9.173 0 01-.555 3.876 6.308 6.308 0 01-2.372 2.979 8.941 8.941 0 01-4.566 1.395 8.878 8.878 0 01-4.71-.884 6.221 6.221 0 01-2.671-2.715 9.086 9.086 0 01-.955-3.74l-.197-3.767a8.02 8.02 0 011.486-5.529c1.291-1.65 3.298-2.55 6.021-2.697zm23.514-1.01c1.5-.08 2.584.325 3.221 1.163a6.052 6.052 0 01.967 3.367l.495 9.449a5.984 5.984 0 01-.609 3.455c-.534.906-1.557 1.408-3.082 1.488-1.525.08-2.583-.326-3.222-1.177a5.983 5.983 0 01-.94-3.361l-.495-9.443a5.914 5.914 0 01.62-3.462c.522-.9 1.545-1.401 3.045-1.48zm19.838.697a5.127 5.127 0 011.886 3.905l.1 1.89a5.247 5.247 0 01-1.504 4.235 6.598 6.598 0 01-4.465 1.75l-3.518.185.285 5.43-5.081.24-.967-18.45 8.666-.454a6.567 6.567 0 014.598 1.269zm24.795-2.772l.332 6.337.87-.045c1.349-.07 2.283.158 3.032.814.748.655 1.164 1.834 1.256 3.585l.13 2.956c.085 1.625-.185 2.797-.808 3.516a3.92 3.92 0 01-2.895 1.2l-3.732.196-.965-18.413 2.78-.146zm-54.206 2.841c1.419-.074 2.46.25 3.091.969a5.27 5.27 0 011.061 3.235l.033.63c.101 1.934-.456 3.36-1.454 3.74 1.032.274 1.85 1.28 1.946 3.12l.098 1.864c.088 1.68-.165 2.883-.759 3.609a3.788 3.788 0 01-2.925 1.227l-3.958.207-.965-18.4 3.832-.2zm35.675-1.882l.472 10.713 1.96-10.84 3.347-.176 1.016 18.423-2.741.143-.491-11.173-2.245 11.317-3.095.162-.965-18.425 2.742-.144zm-59.238 3.06l.146 2.785-4.097.214.822 15.685-2.742.144-.968-18.47 6.84-.358zm73.855-3.813l.145 2.771-2.521.132.82 15.641-2.767.145-.82-15.64-2.521.132-.146-2.772 7.81-.41zm-40.573 4.64c-.971.05-1.13.64-1.056 2.039l-.02-.012.494 9.43c.072 1.373.3 1.968 1.282 1.916.984-.051 1.13-.634 1.057-2.039l-.494-9.417c-.072-1.373-.293-1.968-1.263-1.917zm-9.253 8.077l-1.034.054.29 5.544 1.21-.064c.877-.046 1.194-.51 1.116-1.997l-.095-1.574c-.076-1.443-.422-2.019-1.487-1.963zm55.15-3.863l-.933.05.342 6.512.907-.047c1.009-.053 1.236-.539 1.162-1.956l-.121-2.312a6.354 6.354 0 00-.162-1.387 1.311 1.311 0 00-.215-.5 1.151 1.151 0 00-.98-.36zm-69.441-1.777a2.91 2.91 0 00-2.085 1.186 4.255 4.255 0 00-.43 2.392l.224 4.283c-.004.84.28 1.657.804 2.314.55.61 1.363.913 2.179.814a2.525 2.525 0 002.093-1.057 3.71 3.71 0 00.557-2.398l-.224-4.27a3.985 3.985 0 00-.85-2.483 2.91 2.91 0 00-2.268-.781zm37.681-1.611l-2.414.126.249 4.75 2.338-.123a2.525 2.525 0 001.75-.641c.377-.425.557-.99.493-1.555l-.036-.68c0-.503-.2-.986-.557-1.341a2.374 2.374 0 00-1.823-.537zm-23.725-.216l-1.09.057.254 4.844 1.096-.058a.96.96 0 00.946-.523 4.496 4.496 0 00.124-1.617l-.057-.97c-.07-1.323-.384-1.78-1.273-1.733zM34.18 15.227L35 30.875l1.469-.077.257 4.9-2.742.144-.111-2.116-5.837.306.111 2.116-2.741.144-.257-4.901.277-.014c.303-.016.553-.421.739-1.22a16.84 16.84 0 00.342-2.994c.084-2.385.067-4.52-.027-6.314l-.286-5.203 7.986-.419zm24.904-1.292c1.418-.074 2.459.244 3.09.962a5.297 5.297 0 011.07 3.273l.032.63c.102 1.94-.455 3.365-1.453 3.746 1.032.274 1.855 1.274 1.952 3.113l.096 1.84c.087 1.662-.166 2.863-.758 3.614a3.832 3.832 0 01-2.926 1.221l-3.964.208-.965-18.407 3.826-.2zm11.237-.602l3.57 18.295-2.749.145-.549-3.237-2.603.136-.207 3.276-2.76.145 1.649-18.568 3.65-.192zm10.179-.546l.299 7.754-.1 1.123 4.7-9.09-.002-.043 5.377-.282.966 18.444-5.805.304-.353-7.959.106-1.225-4.805 9.386.004.063-5.433.285-.967-18.445 6.013-.315zm19.648-1.004l.132 2.76-2.522.132.821 15.66-2.754.144-.821-15.66-2.521.132-.145-2.759 7.81-.41zm8.156-.428l.144 2.76-4.134.216.255 4.87 3.416-.18.146 2.785-3.416.179.273 5.21 4.134-.218.147 2.797-6.864.36-.965-18.419 6.864-.36zm-59.432 3.09l5.883 18.186-6.14.322-.786-2.946-4.28.224-.423 3.01-6.12.32 3.937-18.7 7.929-.416zm10.684 9.59l-1.033.055.29 5.537 1.216-.064c.87-.046 1.187-.51 1.109-2.004l-.095-1.561c-.075-1.443-.421-2.018-1.487-1.962zm-27.979-5.892l-2.495.131.125 2.394c.158 3.017.19 5.315.103 6.905a7.043 7.043 0 01-.998 3.627l3.939-.206-.674-12.85zm37.096-.813l-.512 8.693 1.998-.105-1.486-8.588zm-23.517 1.82l-.96 6.543 2.56-.134-1.6-6.41zm14.066-2.576l-1.09.057.254 4.845 1.103-.058a.96.96 0 00.946-.523c.138-.53.18-1.08.123-1.624l-.063-.97c-.07-1.316-.384-1.773-1.273-1.727zM80.663 7.36c.007.12.068.325.121.625.032.372.255.7.59.867.243.1.508.136.77.104.592-.03.962-.208 1.115-.538.067-.17.106-.349.118-.53-.016-.31.036-.527.049-.635l3.24-.17a4.263 4.263 0 01-.739 2.92c-.711.892-1.928 1.383-3.651 1.473-1.681.088-2.944-.286-3.788-1.121A4.238 4.238 0 0177.43 7.53l3.233-.17z" fill="#000"/></g><defs><clipPath id="clip0_101:13"><path fill="#fff" transform="rotate(-3.326 123.903 3.598)" d="M0 0h124v101H0z"/></clipPath></defs></svg>4 51.4939C124.478 52.2789 123.429 52.7138 122.339 52.6941L118.607 52.8897L117.642 34.4771L120.422 34.3314ZM66.2165 37.1722C67.6346 37.0979 68.6755 37.4223 69.3073 38.1409C70.0091 39.0724 70.3821 40.2102 70.368 41.3762L70.401 42.0061C70.5024 43.94 69.945 45.3651 68.9474 45.7459C69.9794 46.0203 70.7968 47.026 70.8932 48.8653L70.9909 50.7299C71.079 52.4097 70.826 53.6125 70.232 54.3385C69.4836 55.1556 68.4146 55.6041 67.3068 55.5656L63.3486 55.773L62.3843 37.3731L66.2165 37.1722ZM101.891 35.29L102.363 46.0033L104.323 35.1625L107.67 34.9871L108.686 53.4096L105.945 53.5533L105.454 42.3799L103.209 53.6967L100.114 53.8589L99.1487 35.4337L101.891 35.29ZM42.6531 38.3503L42.799 41.1345L38.7021 41.3492L39.5241 57.0343L36.7823 57.178L35.8144 38.7087L42.6531 38.3503ZM116.508 34.5366L116.653 37.3082L114.132 37.4403L114.952 53.0813L112.185 53.2263L111.365 37.5854L108.844 37.7175L108.698 34.9458L116.508 34.5366ZM75.9347 39.1769C74.964 39.2278 74.8053 39.8172 74.8786 41.2156L74.859 41.204L75.3532 50.6339C75.4252 52.0071 75.6523 52.6016 76.6355 52.5501C77.6188 52.4986 77.7652 51.9161 77.6916 50.5114L77.1981 41.0941C77.1261 39.7208 76.9053 39.126 75.9347 39.1769ZM66.6816 47.2543L65.648 47.3084L65.9385 52.8517L67.1486 52.7883C68.0248 52.7424 68.3417 52.2773 68.2638 50.7907L68.1686 49.2166C68.093 47.774 67.7468 47.1984 66.6816 47.2543ZM121.832 43.3912L120.899 43.4401L121.241 49.9535L122.148 49.9059C123.157 49.8531 123.384 49.3674 123.31 47.9501L123.189 45.6383C123.186 45.1713 123.132 44.706 123.027 44.2508C122.991 44.0707 122.918 43.9003 122.812 43.7504C122.561 43.4809 122.197 43.3473 121.832 43.3912ZM52.3909 41.6137C51.5576 41.6912 50.7981 42.1236 50.3063 42.8003C49.9333 43.5386 49.7836 44.3696 49.8754 45.1915L50.0999 49.475C50.0964 50.3153 50.38 51.1316 50.9038 51.7889C51.4542 52.3986 52.267 52.7024 53.0827 52.6033C53.9119 52.6159 54.6944 52.2207 55.1762 51.5461C55.629 50.8332 55.8255 49.9875 55.7331 49.1482L55.5093 44.8773C55.5141 43.9778 55.2143 43.103 54.6587 42.3953C54.0504 41.821 53.2241 41.5362 52.3909 41.6137ZM90.0721 40.0025L87.6581 40.129L87.907 44.8786L90.2454 44.756C90.8887 44.7729 91.5143 44.5435 91.9941 44.1148C92.3722 43.6903 92.5517 43.1251 92.4878 42.5604L92.4521 41.8801C92.4524 41.3766 92.252 40.8939 91.8952 40.5386C91.3887 40.1139 90.728 39.9196 90.0721 40.0025ZM66.3472 39.7867L65.2568 39.8439L65.5106 44.688L66.6073 44.6305C67.0003 44.6671 67.3757 44.4594 67.5532 44.1072C67.6922 43.58 67.7342 43.0321 67.6771 42.49L67.6199 41.5202C67.5506 40.1974 67.2359 39.7401 66.3472 39.7867ZM34.1793 15.2275L34.9993 30.8747L36.4679 30.7977L36.7247 35.6985L33.983 35.8422L33.872 33.7257L28.0355 34.0316L28.1464 36.1481L25.4046 36.2918L25.1478 31.391L25.4251 31.3765C25.7277 31.3606 25.9782 30.9559 26.1639 30.1566C26.3673 29.1711 26.4819 28.1694 26.5063 27.1635C26.5899 24.7778 26.5728 22.6438 26.4787 20.8485L26.1934 15.646L34.1793 15.2275ZM59.0829 13.935C60.5011 13.8606 61.5416 14.1788 62.1734 14.8973C62.8843 15.8389 63.2605 16.9907 63.2424 18.1701L63.2754 18.8C63.3771 20.7402 62.8197 22.1653 61.8221 22.5461C62.8541 22.8205 63.6775 23.8195 63.7739 25.6589L63.8703 27.4983C63.9574 29.1613 63.7044 30.362 63.1117 31.1132C62.3586 31.9232 61.292 32.3683 60.1862 32.334L56.2216 32.5418L55.257 14.1355L59.0829 13.935ZM70.3204 13.3334L73.8895 31.6285L71.1414 31.7725L70.5925 28.5356L67.9894 28.672L67.7819 31.9485L65.0212 32.0932L66.671 13.5247L70.3204 13.3334ZM80.499 12.7873L80.7979 20.541L80.6988 21.6642L85.3987 12.5748L85.3964 12.5307L90.7728 12.2489L91.7394 30.693L85.9344 30.9972L85.5805 23.038L85.687 21.8133L80.8824 31.1988L80.8857 31.2618L75.4526 31.5465L74.486 13.1025L80.499 12.7873ZM100.147 11.7829L100.279 14.5426L97.7574 14.6747L98.5781 30.3346L95.8237 30.4789L95.003 14.8191L92.4819 14.9512L92.3373 12.1922L100.147 11.7829ZM108.303 11.3555L108.447 14.1145L104.313 14.3312L104.568 19.2005L107.984 19.0215L108.13 21.8057L104.714 21.9847L104.987 27.1942L109.121 26.9775L109.268 29.7743L102.404 30.1341L101.439 11.7152L108.303 11.3555ZM48.8708 14.4449L54.7537 32.6313L48.6146 32.9531L47.8282 30.0066L43.5485 30.2308L43.1248 33.2408L37.0046 33.5615L40.9417 14.8604L48.8708 14.4449ZM59.5554 24.0356L58.5217 24.0897L58.8119 29.6267L60.0283 29.563C60.8981 29.5174 61.2151 29.0523 61.1368 27.5594L61.0423 25.9979C60.9667 24.5553 60.6206 23.9797 59.5554 24.0356ZM31.5764 18.1431L29.0805 18.274L29.2059 20.6677C29.3641 23.685 29.396 25.9825 29.3087 27.5725C29.3111 28.8497 28.9661 30.1036 28.3106 31.2L32.2499 30.9935L31.5764 18.1431ZM68.6717 17.3297L68.1603 26.0228L70.1583 25.9181L68.6717 17.3297ZM45.1546 19.1496L44.1955 25.6933L46.7545 25.5592L45.1546 19.1496ZM59.2212 16.5743L58.1308 16.6315L58.3847 21.4756L59.4877 21.4178C59.8807 21.4544 60.256 21.2467 60.4336 20.8945C60.5723 20.3651 60.6141 19.8151 60.5571 19.271L60.4936 18.3015C60.4246 16.985 60.1099 16.5278 59.2212 16.5743ZM80.6633 7.35915C80.6695 7.47884 80.7309 7.68407 80.7845 7.98445C80.8156 8.35626 81.039 8.68474 81.3735 8.85053C81.6169 8.95103 81.8822 8.98716 82.1437 8.95544C82.7362 8.92439 83.1061 8.74709 83.2594 8.41691C83.3259 8.24725 83.3655 8.06831 83.377 7.88648C83.3608 7.57782 83.4126 7.36034 83.4259 7.25226L86.6657 7.08248C86.7829 8.1128 86.5205 9.15054 85.9275 10.0015C85.2158 10.8936 83.9986 11.3848 82.2758 11.4751C80.595 11.5632 79.3324 11.1893 78.488 10.3535C77.8006 9.5734 77.4241 8.56807 77.4298 7.52861L80.6633 7.35915Z" fill="black"/>
</g>
<defs>
<clipPath id="clip0_101:13">
<rect width="124" height="101" fill="white" transform="translate(0 7.19531) rotate(-3.32634)"/>
</clipPath>
</defs>
</svg>
