<svg width="237" height="41" fill="none" xmlns="http://www.w3.org/2000/svg"><path d="M46.496 16.108h-1.357V8.38h6.96v7.727h-1.357V9.694h-4.246v6.414zM57.628 8.38c.559 0 1.051.111 1.478.332.426.22.753.526.981.916.236.383.353.82.353 1.314 0 .493-.117.934-.353 1.324-.228.39-.555.696-.981.917-.427.213-.92.32-1.478.32H55.51v2.605h-1.356V8.38h3.474zm-.055 3.82c.463 0 .827-.114 1.091-.342.273-.236.409-.54.409-.916s-.133-.677-.397-.905c-.265-.228-.633-.343-1.103-.343H55.51V12.2h2.063zm5.745 1.899L67.84 8.38h1.213v7.727h-1.324v-5.73l-4.521 5.73h-1.213V8.38h1.323v5.718zm14.472.739h1.146v3.146H77.57v-1.876h-5.923v1.876H70.28v-3.146h.65c.177-.132.335-.312.475-.54.14-.236.228-.53.264-.884l.453-5.033h5.668v6.457zm-1.368 0V9.65h-3.077l-.32 3.764a2.453 2.453 0 01-.199.85 1.854 1.854 0 01-.374.574h3.97zm8.664-6.458h1.434l-3.166 5.906c-.264.5-.514.89-.75 1.17-.228.28-.478.486-.75.619-.264.125-.58.187-.948.187-.316 0-.592-.051-.827-.154v-1.214c.213.066.437.099.673.099.294 0 .54-.066.739-.199a1.6 1.6 0 00.507-.585l.198-.364L79.13 8.38h1.5l2.272 4.183 2.184-4.183zm6.866 5.94l3.242-5.94h1.103v7.728h-1.323v-4.88l-2.735 4.88h-.662l-2.691-4.824v4.824h-1.324V8.38h1.126l3.264 5.939zm13.494 1.788h-1.456l-.706-1.69h-3.76l-.718 1.69h-1.411l3.363-7.727h1.324l3.364 7.727zm-2.702-2.959l-1.346-3.101-1.345 3.101h2.691zm9.419-1.655V8.38h1.357v7.727h-1.357v-3.3h-4.246v3.3h-1.356V8.38h1.356v3.113h4.246zm7.173 4.769c-.809 0-1.537-.177-2.184-.53a3.95 3.95 0 01-1.511-1.457 3.925 3.925 0 01-.54-2.031 3.87 3.87 0 012.051-3.477c.647-.361 1.375-.541 2.184-.541.809 0 1.533.18 2.173.54.647.354 1.15.836 1.51 1.447a3.86 3.86 0 01.552 2.03 3.86 3.86 0 01-.552 2.032 3.94 3.94 0 01-1.51 1.457c-.64.353-1.364.53-2.173.53zm0-1.28c.544 0 1.033-.122 1.467-.365a2.72 2.72 0 001.036-.983c.251-.42.375-.883.375-1.39a2.6 2.6 0 00-.375-1.38c-.25-.42-.595-.75-1.036-.994a2.952 2.952 0 00-1.467-.364c-.551 0-1.048.121-1.489.364a2.722 2.722 0 00-1.026.994 2.675 2.675 0 00-.364 1.38c0 .507.122.97.364 1.39.251.412.592.74 1.026.983.441.243.938.364 1.489.364zm10.368-.884l4.522-5.718h1.213v7.727h-1.323v-5.73l-4.522 5.73h-1.213V8.38h1.323v5.718zm14.747 2.164c-.794 0-1.511-.177-2.151-.53a4.058 4.058 0 01-1.511-1.457 3.925 3.925 0 01-.54-2.031c0-.744.18-1.42.54-2.031a3.974 3.974 0 011.511-1.447c.64-.36 1.357-.54 2.151-.54.654 0 1.253.132 1.798.397a4.02 4.02 0 011.356 1.049c.36.434.603.897.728 1.39h-1.401c-.169-.441-.467-.809-.893-1.103-.426-.302-.956-.453-1.588-.453-.537 0-1.022.121-1.456.364a2.715 2.715 0 00-1.026.994c-.242.42-.364.88-.364 1.38 0 .5.122.96.364 1.38.25.419.592.75 1.026.993.434.243.919.364 1.456.364.654 0 1.195-.147 1.621-.441.434-.295.739-.666.915-1.115h1.401a3.443 3.443 0 01-.739 1.413 4.06 4.06 0 01-1.367 1.037 4.275 4.275 0 01-1.831.387zm11.83-1.425h1.147v3.146h-1.368v-1.876h-5.922v1.876h-1.368v-3.146h.651c.177-.132.335-.312.474-.54.14-.236.228-.53.265-.884l.452-5.033h5.669v6.457zm-1.368 0V9.65h-3.076l-.32 3.764a2.476 2.476 0 01-.199.85 1.852 1.852 0 01-.375.574h3.97zm5.228-2.042v2.042h4.698v1.27h-6.055V8.38h5.945v1.27h-4.588v1.898h4.092v1.247h-4.092zm6.068 3.466c-.22 0-.441-.022-.662-.066v-1.28h.309c.375 0 .68-.114.916-.343.242-.228.382-.577.419-1.048l.408-5.144h5.801v7.727h-1.357V9.694h-3.209l-.309 3.985c-.066.832-.312 1.472-.739 1.921-.419.442-.944.662-1.577.662zm16.339-.154h-1.456l-.705-1.69h-3.761l-.717 1.69h-1.412l3.364-7.727h1.323l3.364 7.727zm-2.702-2.959l-1.345-3.101-1.346 3.101h2.691zm9.42-1.655V8.38h1.356v7.727h-1.356v-3.3h-4.246v3.3h-1.357V8.38h1.357v3.113h4.246zm7.172 4.769c-.808 0-1.536-.177-2.183-.53a3.943 3.943 0 01-1.511-1.457 3.926 3.926 0 01-.541-2.031c0-.744.181-1.42.541-2.031a3.87 3.87 0 011.511-1.447c.647-.36 1.375-.54 2.183-.54.809 0 1.533.18 2.173.54a3.864 3.864 0 011.511 1.447 3.86 3.86 0 01.551 2.03 3.86 3.86 0 01-.551 2.032 3.943 3.943 0 01-1.511 1.457c-.64.353-1.364.53-2.173.53zm0-1.28c.545 0 1.034-.122 1.467-.365.441-.243.787-.57 1.037-.983.25-.42.375-.883.375-1.39 0-.508-.125-.968-.375-1.38-.25-.42-.596-.75-1.037-.994a2.947 2.947 0 00-1.467-.364c-.551 0-1.047.121-1.488.364a2.715 2.715 0 00-1.026.994 2.665 2.665 0 00-.364 1.38c0 .507.121.97.364 1.39.25.412.592.74 1.026.983.441.243.937.364 1.488.364zM50.455 27.749c.375.118.699.338.97.662.273.317.409.729.409 1.236 0 .405-.107.78-.32 1.126a2.219 2.219 0 01-.927.806c-.397.199-.86.298-1.389.298h-4.059V24.15h3.97c.471 0 .887.092 1.247.276.36.177.636.42.827.729.199.309.298.651.298 1.026 0 .42-.1.758-.298 1.016-.191.25-.434.434-.728.552zm-3.96-2.428v1.953h2.515c.339 0 .607-.092.805-.276a.905.905 0 00.31-.706.893.893 0 00-.31-.696c-.198-.183-.466-.276-.805-.276h-2.514zm2.604 5.386c.426 0 .76-.106 1.003-.32a1.05 1.05 0 00.375-.839c0-.346-.125-.622-.375-.828-.242-.213-.577-.32-1.003-.32h-2.603v2.307h2.602zm11.238 1.325c-.794 0-1.51-.176-2.15-.53a4.05 4.05 0 01-1.511-1.457 3.92 3.92 0 01-.54-2.03c0-.744.18-1.421.54-2.032a3.965 3.965 0 011.51-1.446c.64-.36 1.357-.54 2.151-.54a4.05 4.05 0 011.798.396 4.02 4.02 0 011.356 1.05c.36.433.603.897.728 1.39h-1.4a2.35 2.35 0 00-.894-1.104c-.426-.302-.956-.452-1.588-.452a2.93 2.93 0 00-1.456.364 2.714 2.714 0 00-1.025.993c-.243.42-.364.88-.364 1.38 0 .5.121.96.364 1.38.25.42.591.75 1.025.993.434.243.92.365 1.456.365.654 0 1.195-.148 1.621-.442a2.39 2.39 0 00.916-1.115h1.4a3.449 3.449 0 01-.739 1.413 4.06 4.06 0 01-1.367 1.038 4.274 4.274 0 01-1.831.386zm8.555-.155h-1.357v-6.413h-2.779V24.15h6.926v1.314h-2.79v6.413zm9.172-7.727h1.433l-3.165 5.906c-.264.5-.514.89-.75 1.17-.228.28-.478.486-.75.618-.264.125-.58.188-.948.188-.316 0-.592-.052-.827-.155v-1.214c.213.066.437.1.672.1.295 0 .541-.067.74-.2.198-.132.367-.327.507-.584l.198-.365-3.066-5.464h1.5l2.272 4.184 2.184-4.184zm8.503 6.458h1.147v3.146h-1.368v-1.877h-5.922v1.877h-1.368v-3.146h.65c.177-.133.336-.313.475-.54.14-.236.228-.53.265-.884l.452-5.034h5.669v6.458zm-1.368 0V25.42h-3.077l-.32 3.764a2.455 2.455 0 01-.198.85 1.85 1.85 0 01-.375.574h3.97zm5.195-.74l4.521-5.718h1.213v7.727h-1.323v-5.729l-4.522 5.73H89.07V24.15h1.324v5.718zm9.111 0l4.522-5.718h1.213v7.727h-1.323v-5.729l-4.522 5.73h-1.213V24.15h1.323v5.718zm12.376-1.302v2.042h4.698v1.27h-6.055V24.15h5.945v1.27h-4.588v1.898h4.091v1.248h-4.091zm11.67-.817c.375.118.699.338.971.662.272.317.408.729.408 1.236 0 .405-.107.78-.32 1.126a2.218 2.218 0 01-.926.806c-.397.199-.861.298-1.39.298h-4.058V24.15h3.97c.47 0 .886.092 1.246.276.36.177.636.42.827.729.199.309.298.651.298 1.026 0 .42-.099.758-.298 1.016a1.69 1.69 0 01-.728.552zm-3.959-2.428v1.953h2.515c.338 0 .606-.092.804-.276a.905.905 0 00.309-.706.893.893 0 00-.309-.696c-.198-.183-.466-.276-.804-.276h-2.515zm2.603 5.386c.426 0 .761-.106 1.003-.32a1.05 1.05 0 00.375-.839c0-.346-.125-.622-.375-.828-.242-.213-.577-.32-1.003-.32h-2.603v2.307h2.603zm5.636 1.17h-1.356V24.15h5.679v1.314h-4.323v6.413zm6.968-3.311v2.042h4.698v1.27h-6.054V24.15h5.944v1.27h-4.588v1.898h4.092v1.248h-4.092zm11.958-1.303V24.15h1.356v7.727h-1.356v-3.3h-4.247v3.3h-1.356V24.15h1.356v3.113h4.247zm4.735 2.605l4.522-5.718h1.213v7.727h-1.324v-5.729l-4.521 5.73h-1.214V24.15h1.324v5.718zm13.854-5.718v7.727h-1.357v-2.859h-1.842l-1.93 2.86h-1.577l2.074-3.014c-.559-.17-.993-.457-1.302-.861-.301-.405-.452-.883-.452-1.435 0-.471.11-.887.331-1.248.228-.367.551-.654.97-.86.427-.207.923-.31 1.489-.31h3.596zm-5.018 2.45c0 .347.117.626.353.84.242.206.584.309 1.025.309h2.283v-2.285h-2.283c-.441 0-.783.107-1.025.32-.236.206-.353.478-.353.817zm10.017 5.432c-.221 0-.441-.022-.662-.066v-1.28h.309c.375 0 .68-.115.915-.343.243-.228.383-.578.419-1.049l.408-5.144h5.802v7.727h-1.357v-6.413h-3.209l-.309 3.985c-.066.831-.313 1.472-.739 1.92-.419.442-.945.663-1.577.663zm10.593-3.466v2.042h4.698v1.27h-6.055V24.15h5.945v1.27h-4.588v1.898h4.091v1.248h-4.091zm7.711 3.311h-1.356V24.15h6.959v7.727h-1.357v-6.413h-4.246v6.413zm9.015-3.312v2.043h4.698v1.269h-6.055V24.15h5.945v1.27h-4.588v1.898h4.091v1.247h-4.091zm.33-5.121a.739.739 0 01-.529-.2.658.658 0 01-.209-.496c0-.191.07-.353.209-.486a.741.741 0 01.529-.21.74.74 0 01.53.2c.14.132.21.297.21.496s-.07.364-.21.497a.74.74 0 01-.53.199zm2.57 0a.739.739 0 01-.529-.2.655.655 0 01-.21-.496c0-.199.07-.364.21-.497a.739.739 0 01.529-.198c.206 0 .379.07.519.21.147.132.22.294.22.485a.66.66 0 01-.209.497.74.74 0 01-.53.199zm7.006 4.515l2.856 3.918h-1.588l-2.051-2.936-2.051 2.936h-1.556l2.846-3.918-2.702-3.809h1.588l1.919 2.826 1.908-2.826h1.544l-2.713 3.809zm5.397 1.909l4.522-5.718h1.213v7.727h-1.324v-5.729l-4.521 5.73h-1.213V24.15h1.323v5.718zm13.391-2.605V24.15h1.356v7.727h-1.356v-3.3h-4.246v3.3h-1.357V24.15h1.357v3.113h4.246zm10.514 4.614h-1.456l-.706-1.689h-3.76l-.717 1.69h-1.412l3.364-7.728h1.323l3.364 7.727zm-2.702-2.958l-1.345-3.102-1.346 3.102h2.691zM10.881 1c3.403 1.25 6.26 5.083 6.807 11.5h.252l.42-9.042C16.973 1.833 14.243 0 10.125 0 3.53 0 0 5.917 0 11.958 0 19.75 2.773 27.25 7.352 32.375H8.53c5.083 0 10.083-4.875 10.797-12.75h-.252c-1.555 8.167-6.134 9.458-8.907 9.792-3.487-4.75-5.504-10.834-5.504-16.167 0-6.583 1.85-10.042 6.218-12.25zm19.537 29.5l-2.101 1.167v.25h9.033v-.25l-2.1-1.167V1.917L37.811.5V.25H21.679V.5l2.647 1.417c-.042 8.75-.168 15.333-.63 20.291-1.093 11.209-3.32 13.917-5.63 13.917-1.723 0-3.193-1.375-4.622-2.958l-.252.25L19.41 41c1.26-1.25 2.983-3.875 4.033-7.667 1.429-5.25 1.975-13.958 2.311-32.125h4.664V30.5z" fill="#B2B2B2"/></svg>63.5353 30.6082C63.1751 31.0349 62.7193 31.3808 62.1677 31.6458C61.6165 31.9032 61.0061 32.0321 60.337 32.0321Z" fill="#B2B2B2"/>
<path d="M68.8918 31.8772H67.5353V25.464H64.756V24.1504H71.682V25.464H68.8918V31.8772Z" fill="#B2B2B2"/>
<path d="M78.0637 24.1504H79.4974L76.3321 30.0559C76.0676 30.5564 75.8178 30.9465 75.5822 31.2259C75.3543 31.5056 75.1044 31.7118 74.8323 31.8441C74.5678 31.9692 74.2515 32.0319 73.884 32.0319C73.5677 32.0319 73.2921 31.9803 73.0569 31.8772V30.663C73.2702 30.7292 73.4943 30.7623 73.7295 30.7623C74.0236 30.7623 74.27 30.6961 74.4683 30.5638C74.667 30.4314 74.8361 30.2363 74.9757 29.9786L75.1744 29.6143L72.1083 24.1504H73.6081L75.8801 28.334L78.0637 24.1504Z" fill="#B2B2B2"/>
<path d="M86.5667 30.608H87.7137V33.7539H86.3461V31.8772H80.4238V33.7539H79.0562V30.608H79.7069C79.8833 30.4753 80.0416 30.2952 80.1812 30.0671C80.3211 29.8316 80.4091 29.5373 80.446 29.1839L80.8981 24.1504H86.5667V30.608ZM85.1992 30.608V25.4198H82.1223L81.8025 29.1839C81.7802 29.5077 81.7141 29.7909 81.6038 30.034C81.5011 30.2694 81.3759 30.4607 81.229 30.608H85.1992Z" fill="#B2B2B2"/>
<path d="M90.3936 29.8682L94.9153 24.1504H96.1284V31.8772H94.805V26.1484L90.2835 31.8772H89.0702V24.1504H90.3936V29.8682Z" fill="#B2B2B2"/>
<path d="M99.5052 29.8682L104.027 24.1504H105.24V31.8772H103.917V26.1484L99.3949 31.8772H98.1818V24.1504H99.5052V29.8682Z" fill="#B2B2B2"/>
<path d="M111.881 28.5658V30.608H116.579V31.8772H110.524V24.1504H116.469V25.4198H111.881V27.3184H115.972V28.5658H111.881Z" fill="#B2B2B2"/>
<path d="M123.551 27.7489C123.926 27.8667 124.25 28.0874 124.522 28.4112C124.794 28.7277 124.93 29.1398 124.93 29.6474C124.93 30.0521 124.823 30.4276 124.61 30.7734C124.397 31.112 124.088 31.3805 123.684 31.5794C123.287 31.7779 122.823 31.8772 122.294 31.8772H118.236V24.1504H122.206C122.676 24.1504 123.092 24.2424 123.452 24.4263C123.812 24.6029 124.088 24.8458 124.279 25.1549C124.478 25.4639 124.577 25.8061 124.577 26.1814C124.577 26.6009 124.478 26.9394 124.279 27.197C124.088 27.4472 123.845 27.6312 123.551 27.7489ZM119.592 25.3205V27.2743H122.107C122.445 27.2743 122.713 27.1823 122.911 26.9983C123.117 26.8143 123.22 26.5789 123.22 26.2919C123.22 26.0122 123.117 25.7804 122.911 25.5964C122.713 25.4125 122.445 25.3205 122.107 25.3205H119.592ZM122.195 30.7073C122.621 30.7073 122.956 30.6007 123.198 30.3872C123.448 30.1737 123.573 29.894 123.573 29.5481C123.573 29.2023 123.448 28.9264 123.198 28.7203C122.956 28.5069 122.621 28.4002 122.195 28.4002H119.592V30.7073H122.195Z" fill="#B2B2B2"/>
<path d="M127.831 31.8772H126.475V24.1504H132.154V25.464H127.831V31.8772Z" fill="#B2B2B2"/>
<path d="M134.799 28.5658V30.608H139.497V31.8772H133.443V24.1504H139.387V25.4198H134.799V27.3184H138.891V28.5658H134.799Z" fill="#B2B2B2"/>
<path d="M146.757 27.2632V24.1504H148.113V31.8772H146.757V28.5768H142.51V31.8772H141.154V24.1504H142.51V27.2632H146.757Z" fill="#B2B2B2"/>
<path d="M151.492 29.8682L156.014 24.1504H157.227V31.8772H155.903V26.1484L151.382 31.8772H150.168V24.1504H151.492V29.8682Z" fill="#B2B2B2"/>
<path d="M165.346 24.1504V31.8772H163.989V29.0184H162.147L160.217 31.8772H158.64L160.714 28.8638C160.155 28.6945 159.721 28.4075 159.412 28.0028C159.111 27.5981 158.96 27.1197 158.96 26.5678C158.96 26.0968 159.07 25.681 159.291 25.3205C159.519 24.9525 159.842 24.6655 160.261 24.4594C160.688 24.2534 161.184 24.1504 161.75 24.1504H165.346ZM160.328 26.6009C160.328 26.9468 160.445 27.2264 160.681 27.4399C160.923 27.6459 161.265 27.7489 161.706 27.7489H163.989V25.464H161.706C161.265 25.464 160.923 25.5707 160.681 25.7841C160.445 25.9901 160.328 26.2624 160.328 26.6009Z" fill="#B2B2B2"/>
<path d="M170.345 32.0319C170.124 32.0319 169.904 32.0099 169.683 31.9657V30.6853H169.992C170.367 30.6853 170.672 30.5711 170.907 30.3429C171.15 30.1148 171.29 29.7651 171.326 29.2942L171.734 24.1504H177.536V31.8772H176.179V25.464H172.97L172.661 29.4489C172.595 30.2803 172.348 30.9208 171.922 31.3694C171.503 31.811 170.977 32.0319 170.345 32.0319Z" fill="#B2B2B2"/>
<path d="M180.938 28.5658V30.608H185.636V31.8772H179.581V24.1504H185.526V25.4198H180.938V27.3184H185.029V28.5658H180.938Z" fill="#B2B2B2"/>
<path d="M188.649 31.8772H187.293V24.1504H194.252V31.8772H192.895V25.464H188.649V31.8772Z" fill="#B2B2B2"/>
<path d="M197.664 28.5654V30.6076H202.362V31.8769H196.307V24.1501H202.252V25.4195H197.664V27.3181H201.755V28.5654H197.664ZM197.994 23.4436C197.781 23.4436 197.605 23.3774 197.465 23.2449C197.326 23.1124 197.256 22.9469 197.256 22.7482C197.256 22.5568 197.326 22.3949 197.465 22.2625C197.612 22.1226 197.789 22.0527 197.994 22.0527C198.208 22.0527 198.384 22.119 198.524 22.2514C198.664 22.3839 198.734 22.5495 198.734 22.7482C198.734 22.9469 198.664 23.1124 198.524 23.2449C198.384 23.3774 198.208 23.4436 197.994 23.4436ZM200.564 23.4436C200.351 23.4436 200.175 23.3774 200.035 23.2449C199.895 23.1124 199.825 22.9469 199.825 22.7482C199.825 22.5495 199.895 22.3839 200.035 22.2514C200.175 22.119 200.351 22.0527 200.564 22.0527C200.77 22.0527 200.943 22.1226 201.083 22.2625C201.23 22.3949 201.303 22.5568 201.303 22.7482C201.303 22.9469 201.233 23.1124 201.094 23.2449C200.954 23.3774 200.777 23.4436 200.564 23.4436Z" fill="#B2B2B2"/>
<path d="M207.57 27.9586L210.426 31.8772H208.838L206.787 28.9411L204.736 31.8772H203.18L206.026 27.9586L203.324 24.1504H204.912L206.831 26.9762L208.739 24.1504H210.283L207.57 27.9586Z" fill="#B2B2B2"/>
<path d="M212.967 29.8682L217.489 24.1504H218.702V31.8772H217.378V26.1484L212.857 31.8772H211.644V24.1504H212.967V29.8682Z" fill="#B2B2B2"/>
<path d="M226.358 27.2632V24.1504H227.714V31.8772H226.358V28.5768H222.112V31.8772H220.755V24.1504H222.112V27.2632H226.358Z" fill="#B2B2B2"/>
<path d="M236.872 31.8772H235.416L234.71 30.1883H230.95L230.233 31.8772H228.821L232.185 24.1504H233.508L236.872 31.8772ZM234.17 28.919L232.825 25.8172L231.479 28.919H234.17Z" fill="#B2B2B2"/>
<path d="M10.8814 0.999999C14.2845 2.25 17.1414 6.08335 17.6876 12.5H17.9397L18.3598 3.45832C16.9734 1.83333 14.2425 0 10.1252 0C3.52911 0 0 5.91668 0 11.9583C0 19.75 2.77288 27.25 7.35232 32.3751H8.52869C13.6123 32.3751 18.6119 27.5 19.3261 19.625H19.074C17.5195 27.7917 12.9401 29.0833 10.1672 29.4166C6.68012 24.6667 4.66349 18.5833 4.66349 13.25C4.66349 6.66666 6.51206 3.20834 10.8814 0.999999ZM30.4176 30.4999L28.317 31.6666V31.9167H37.3497V31.6666L35.2492 30.4999V1.91667L37.812 0.500001V0.25H21.6789V0.500001L24.3257 1.91667C24.2837 10.6667 24.1576 17.25 23.6955 22.2083C22.6032 33.4168 20.3764 36.1251 18.0657 36.1251C16.3432 36.1251 14.8727 34.7501 13.4442 33.1667L13.1922 33.4168L19.4102 41C20.6706 39.7501 22.3931 37.1249 23.4434 33.3333C24.8719 28.0833 25.418 19.375 25.7541 1.20833H30.4176V30.4999Z" fill="#B2B2B2"/>
</svg>
