<svg width="237" height="41" fill="none" xmlns="http://www.w3.org/2000/svg"><path d="M46.496 16.108h-1.357V8.38h6.96v7.727h-1.357V9.694h-4.246v6.414zM57.628 8.38c.559 0 1.051.111 1.478.332.426.22.753.526.981.916.236.383.353.82.353 1.314 0 .493-.117.934-.353 1.324-.228.39-.555.696-.981.917-.427.213-.92.32-1.478.32H55.51v2.605h-1.356V8.38h3.474zm-.055 3.82c.463 0 .827-.114 1.091-.342.273-.236.409-.54.409-.916s-.133-.677-.397-.905c-.265-.228-.633-.343-1.103-.343H55.51V12.2h2.063zm5.745 1.899L67.84 8.38h1.213v7.727h-1.324v-5.73l-4.521 5.73h-1.213V8.38h1.323v5.718zm14.472.739h1.146v3.146H77.57v-1.876h-5.923v1.876H70.28v-3.146h.65c.177-.132.335-.312.475-.54.14-.236.228-.53.264-.884l.453-5.033h5.668v6.457zm-1.368 0V9.65h-3.077l-.32 3.764a2.453 2.453 0 01-.199.85 1.854 1.854 0 01-.374.574h3.97zm8.664-6.458h1.434l-3.166 5.906c-.264.5-.514.89-.75 1.17-.228.28-.478.486-.75.619-.264.125-.58.187-.948.187-.316 0-.592-.051-.827-.154v-1.214c.213.066.437.099.673.099.294 0 .54-.066.739-.199a1.6 1.6 0 00.507-.585l.198-.364L79.13 8.38h1.5l2.272 4.183 2.184-4.183zm6.866 5.94l3.242-5.94h1.103v7.728h-1.323v-4.88l-2.735 4.88h-.662l-2.691-4.824v4.824h-1.324V8.38h1.126l3.264 5.939zm13.494 1.788h-1.456l-.706-1.69h-3.76l-.718 1.69h-1.411l3.363-7.727h1.324l3.364 7.727zm-2.702-2.959l-1.346-3.101-1.345 3.101h2.691zm9.419-1.655V8.38h1.357v7.727h-1.357v-3.3h-4.246v3.3h-1.356V8.38h1.356v3.113h4.246zm7.173 4.769c-.809 0-1.537-.177-2.184-.53a3.95 3.95 0 01-1.511-1.457 3.925 3.925 0 01-.54-2.031 3.87 3.87 0 012.051-3.477c.647-.361 1.375-.541 2.184-.541.809 0 1.533.18 2.173.54.647.354 1.15.836 1.51 1.447a3.86 3.86 0 01.552 2.03 3.86 3.86 0 01-.552 2.032 3.94 3.94 0 01-1.51 1.457c-.64.353-1.364.53-2.173.53zm0-1.28c.544 0 1.033-.122 1.467-.365a2.72 2.72 0 001.036-.983c.251-.42.375-.883.375-1.39a2.6 2.6 0 00-.375-1.38c-.25-.42-.595-.75-1.036-.994a2.952 2.952 0 00-1.467-.364c-.551 0-1.048.121-1.489.364a2.722 2.722 0 00-1.026.994 2.675 2.675 0 00-.364 1.38c0 .507.122.97.364 1.39.251.412.592.74 1.026.983.441.243.938.364 1.489.364zm10.368-.884l4.522-5.718h1.213v7.727h-1.323v-5.73l-4.522 5.73h-1.213V8.38h1.323v5.718zm14.747 2.164c-.794 0-1.511-.177-2.151-.53a4.058 4.058 0 01-1.511-1.457 3.925 3.925 0 01-.54-2.031c0-.744.18-1.42.54-2.031a3.974 3.974 0 011.511-1.447c.64-.36 1.357-.54 2.151-.54.654 0 1.253.132 1.798.397a4.02 4.02 0 011.356 1.049c.36.434.603.897.728 1.39h-1.401c-.169-.441-.467-.809-.893-1.103-.426-.302-.956-.453-1.588-.453-.537 0-1.022.121-1.456.364a2.715 2.715 0 00-1.026.994c-.242.42-.364.88-.364 1.38 0 .5.122.96.364 1.38.25.419.592.75 1.026.993.434.243.919.364 1.456.364.654 0 1.195-.147 1.621-.441.434-.295.739-.666.915-1.115h1.401a3.443 3.443 0 01-.739 1.413 4.06 4.06 0 01-1.367 1.037 4.275 4.275 0 01-1.831.387zm11.83-1.425h1.147v3.146h-1.368v-1.876h-5.922v1.876h-1.368v-3.146h.651c.177-.132.335-.312.474-.54.14-.236.228-.53.265-.884l.452-5.033h5.669v6.457zm-1.368 0V9.65h-3.076l-.32 3.764a2.476 2.476 0 01-.199.85 1.852 1.852 0 01-.375.574h3.97zm5.228-2.042v2.042h4.698v1.27h-6.055V8.38h5.945v1.27h-4.588v1.898h4.092v1.247h-4.092zm6.068 3.466c-.22 0-.441-.022-.662-.066v-1.28h.309c.375 0 .68-.114.916-.343.242-.228.382-.577.419-1.048l.408-5.144h5.801v7.727h-1.357V9.694h-3.209l-.309 3.985c-.066.832-.312 1.472-.739 1.921-.419.442-.944.662-1.577.662zm16.339-.154h-1.456l-.705-1.69h-3.761l-.717 1.69h-1.412l3.364-7.727h1.323l3.364 7.727zm-2.702-2.959l-1.345-3.101-1.346 3.101h2.691zm9.42-1.655V8.38h1.356v7.727h-1.356v-3.3h-4.246v3.3h-1.357V8.38h1.357v3.113h4.246zm7.172 4.769c-.808 0-1.536-.177-2.183-.53a3.943 3.943 0 01-1.511-1.457 3.926 3.926 0 01-.541-2.031c0-.744.181-1.42.541-2.031a3.87 3.87 0 011.511-1.447c.647-.36 1.375-.54 2.183-.54.809 0 1.533.18 2.173.54a3.864 3.864 0 011.511 1.447 3.86 3.86 0 01.551 2.03 3.86 3.86 0 01-.551 2.032 3.943 3.943 0 01-1.511 1.457c-.64.353-1.364.53-2.173.53zm0-1.28c.545 0 1.034-.122 1.467-.365.441-.243.787-.57 1.037-.983.25-.42.375-.883.375-1.39 0-.508-.125-.968-.375-1.38-.25-.42-.596-.75-1.037-.994a2.947 2.947 0 00-1.467-.364c-.551 0-1.047.121-1.488.364a2.715 2.715 0 00-1.026.994 2.665 2.665 0 00-.364 1.38c0 .507.121.97.364 1.39.25.412.592.74 1.026.983.441.243.937.364 1.488.364zM50.455 27.749c.375.118.699.338.97.662.273.317.409.729.409 1.236 0 .405-.107.78-.32 1.126a2.219 2.219 0 01-.927.806c-.397.199-.86.298-1.389.298h-4.059V24.15h3.97c.471 0 .887.092 1.247.276.36.177.636.42.827.729.199.309.298.651.298 1.026 0 .42-.1.758-.298 1.016-.191.25-.434.434-.728.552zm-3.96-2.428v1.953h2.515c.339 0 .607-.092.805-.276a.905.905 0 00.31-.706.893.893 0 00-.31-.696c-.198-.183-.466-.276-.805-.276h-2.514zm2.604 5.386c.426 0 .76-.106 1.003-.32a1.05 1.05 0 00.375-.839c0-.346-.125-.622-.375-.828-.242-.213-.577-.32-1.003-.32h-2.603v2.307h2.602zm11.238 1.325c-.794 0-1.51-.176-2.15-.53a4.05 4.05 0 01-1.511-1.457 3.92 3.92 0 01-.54-2.03c0-.744.18-1.421.54-2.032a3.965 3.965 0 011.51-1.446c.64-.36 1.357-.54 2.151-.54a4.05 4.05 0 011.798.396 4.02 4.02 0 011.356 1.05c.36.433.603.897.728 1.39h-1.4a2.35 2.35 0 00-.894-1.104c-.426-.302-.956-.452-1.588-.452a2.93 2.93 0 00-1.456.364 2.714 2.714 0 00-1.025.993c-.243.42-.364.88-.364 1.38 0 .5.121.96.364 1.38.25.42.591.75 1.025.993.434.243.92.365 1.456.365.654 0 1.195-.148 1.621-.442a2.39 2.39 0 00.916-1.115h1.4a3.449 3.449 0 01-.739 1.413 4.06 4.06 0 01-1.367 1.038 4.274 4.274 0 01-1.831.386zm8.555-.155h-1.357v-6.413h-2.779V24.15h6.926v1.314h-2.79v6.413zm9.172-7.727h1.433l-3.165 5.906c-.264.5-.514.89-.75 1.17-.228.28-.478.486-.75.618-.264.125-.58.188-.948.188-.316 0-.592-.052-.827-.155v-1.214c.213.066.437.1.672.1.295 0 .541-.067.74-.2.198-.132.367-.327.507-.584l.198-.365-3.066-5.464h1.5l2.272 4.184 2.184-4.184zm8.503 6.458h1.147v3.146h-1.368v-1.877h-5.922v1.877h-1.368v-3.146h.65c.177-.133.336-.313.475-.54.14-.236.228-.53.265-.884l.452-5.034h5.669v6.458zm-1.368 0V25.42h-3.077l-.32 3.764a2.455 2.455 0 01-.198.85 1.85 1.85 0 01-.375.574h3.97zm5.195-.74l4.521-5.718h1.213v7.727h-1.323v-5.729l-4.522 5.73H89.07V24.15h1.324v5.718zm9.111 0l4.522-5.718h1.213v7.727h-1.323v-5.729l-4.522 5.73h-1.213V24.15h1.323v5.718zm12.376-1.302v2.042h4.698v1.27h-6.055V24.15h5.945v1.27h-4.588v1.898h4.091v1.248h-4.091zm11.67-.817c.375.118.699.338.971.662.272.317.408.729.408 1.236 0 .405-.107.78-.32 1.126a2.218 2.218 0 01-.926.806c-.397.199-.861.298-1.39.298h-4.058V24.15h3.97c.47 0 .886.092 1.246.276.36.177.636.42.827.729.199.309.298.651.298 1.026 0 .42-.099.758-.298 1.016a1.69 1.69 0 01-.728.552zm-3.959-2.428v1.953h2.515c.338 0 .606-.092.804-.276a.905.905 0 00.309-.706.893.893 0 00-.309-.696c-.198-.183-.466-.276-.804-.276h-2.515zm2.603 5.386c.426 0 .761-.106 1.003-.32a1.05 1.05 0 00.375-.839c0-.346-.125-.622-.375-.828-.242-.213-.577-.32-1.003-.32h-2.603v2.307h2.603zm5.636 1.17h-1.356V24.15h5.679v1.314h-4.323v6.413zm6.968-3.311v2.042h4.698v1.27h-6.054V24.15h5.944v1.27h-4.588v1.898h4.092v1.248h-4.092zm11.958-1.303V24.15h1.356v7.727h-1.356v-3.3h-4.247v3.3h-1.356V24.15h1.356v3.113h4.247zm4.735 2.605l4.522-5.718h1.213v7.727h-1.324v-5.729l-4.521 5.73h-1.214V24.15h1.324v5.718zm13.854-5.718v7.727h-1.357v-2.859h-1.842l-1.93 2.86h-1.577l2.074-3.014c-.559-.17-.993-.457-1.302-.861-.301-.405-.452-.883-.452-1.435 0-.471.11-.887.331-1.248.228-.367.551-.654.97-.86.427-.207.923-.31 1.489-.31h3.596zm-5.018 2.45c0 .347.117.626.353.84.242.206.584.309 1.025.309h2.283v-2.285h-2.283c-.441 0-.783.107-1.025.32-.236.206-.353.478-.353.817zm10.017 5.432c-.221 0-.441-.022-.662-.066v-1.28h.309c.375 0 .68-.115.915-.343.243-.228.383-.578.419-1.049l.408-5.144h5.802v7.727h-1.357v-6.413h-3.209l-.309 3.985c-.066.831-.313 1.472-.739 1.92-.419.442-.945.663-1.577.663zm10.593-3.466v2.042h4.698v1.27h-6.055V24.15h5.945v1.27h-4.588v1.898h4.091v1.248h-4.091zm7.711 3.311h-1.356V24.15h6.959v7.727h-1.357v-6.413h-4.246v6.413zm9.015-3.312v2.043h4.698v1.269h-6.055V24.15h5.945v1.27h-4.588v1.898h4.091v1.247h-4.091zm.33-5.121a.739.739 0 01-.529-.2.658.658 0 01-.209-.496c0-.191.07-.353.209-.486a.741.741 0 01.529-.21.74.74 0 01.53.2c.14.132.21.297.21.496s-.07.364-.21.497a.74.74 0 01-.53.199zm2.57 0a.739.739 0 01-.529-.2.655.655 0 01-.21-.496c0-.199.07-.364.21-.497a.739.739 0 01.529-.198c.206 0 .379.07.519.21.147.132.22.294.22.485a.66.66 0 01-.209.497.74.74 0 01-.53.199zm7.006 4.515l2.856 3.918h-1.588l-2.051-2.936-2.051 2.936h-1.556l2.846-3.918-2.702-3.809h1.588l1.919 2.826 1.908-2.826h1.544l-2.713 3.809zm5.397 1.909l4.522-5.718h1.213v7.727h-1.324v-5.729l-4.521 5.73h-1.213V24.15h1.323v5.718zm13.391-2.605V24.15h1.356v7.727h-1.356v-3.3h-4.246v3.3h-1.357V24.15h1.357v3.113h4.246zm10.514 4.614h-1.456l-.706-1.689h-3.76l-.717 1.69h-1.412l3.364-7.728h1.323l3.364 7.727zm-2.702-2.958l-1.345-3.102-1.346 3.102h2.691zM10.881 1c3.403 1.25 6.26 5.083 6.807 11.5h.252l.42-9.042C16.973 1.833 14.243 0 10.125 0 3.53 0 0 5.917 0 11.958 0 19.75 2.773 27.25 7.352 32.375H8.53c5.083 0 10.083-4.875 10.797-12.75h-.252c-1.555 8.167-6.134 9.458-8.907 9.792-3.487-4.75-5.504-10.834-5.504-16.167 0-6.583 1.85-10.042 6.218-12.25zm19.537 29.5l-2.101 1.167v.25h9.033v-.25l-2.1-1.167V1.917L37.811.5V.25H21.679V.5l2.647 1.417c-.042 8.75-.168 15.333-.63 20.291-1.093 11.209-3.32 13.917-5.63 13.917-1.723 0-3.193-1.375-4.622-2.958l-.252.25L19.41 41c1.26-1.25 2.983-3.875 4.033-7.667 1.429-5.25 1.975-13.958 2.311-32.125h4.664V30.5z" fill="#B2B2B2"/></svg>