<svg width="200" height="35" fill="none" xmlns="http://www.w3.org/2000/svg"><path d="M143.941 17.37c-1.21 4.073-3.27 6.517-6.181 6.582-1.276-1.336-2.977-4.17-3.206-7.56h8.897v-1.271c0-4.334-1.767-7.3-5.888-7.3-3.303 0-6.083 2.64-6.083 7.007 0 3.845 1.374 7.788 4.056 10.233h1.014c3.892 0 6.574-3.096 7.587-7.691h-.196zm-9.452-1.858c.033-3.128.654-6.192 3.663-7.267 2.061 1.01 2.519 3.324 2.519 7.267h-6.182zm-18.446 1.858c-1.211 4.073-3.271 6.517-6.182 6.582-1.275-1.336-2.976-4.17-3.205-7.56h8.896v-1.271c0-4.334-1.766-7.3-5.887-7.3-3.303 0-6.084 2.64-6.084 7.007 0 3.845 1.374 7.788 4.056 10.233h1.014c3.892 0 6.574-3.096 7.588-7.691h-.196zm-9.453-1.858c.033-3.128.655-6.192 3.664-7.267 2.06 1.01 2.518 3.324 2.518 7.267h-6.182zm61.914 8.082V8.017h-.524l-6.377 11.601V9.223l1.602-.913v-.195h-5.985v.195l1.537.913V25.19h.589l6.312-11.34v9.743l-1.537.912v.196h5.985v-.196l-1.602-.912zM91.807 19.26c-.883 4.888-1.962 6.81-3.205 6.81-.949 0-1.7-1.89-2.159-3.095l-.261.065 2.387 7.463c3.402-3.65 4.677-8.082 5.658-29.851h2.813v23.007l-1.537.913v.195h6.901v-.195l-1.603-.913V1.304l1.963-1.108V0h-11.48v.196l1.995 1.108c-.458 9.027-.883 14.664-1.472 17.956zm26.525-10.037v14.436l-1.537.913v.195h6.083v-.195l-1.602-.913V8.897h4.513v14.762l-1.537.913v.195h6.083v-.195l-1.602-.913V9.223l1.602-.913v-.195h-13.606v.195l1.603.913zm70.352 13.068c-.458-.587-.785-1.826-.785-2.9 0-3.814 2.224-5.28 5.135-5.378v5.605l-4.35 2.673zm7.162-1.271v-9.19c0-2.575-1.373-4.009-4.088-4.009-2.584 0-4.546 1.173-5.626 3.129l.164.065c1.341-1.89 3.336-2.51 5.07-2.51 1.406.75 1.635 1.988 1.635 3.422v1.5c-4.317 0-7.653 2.64-7.653 6.55 0 2.216.425 3.128 1.537 4.953l6.116-4.497v2.216c0 1.532.948 2.281.948 2.281L200 20.303l-.065-.098-.393.228c-1.537.88-2.355 1.564-3.172 1.564-.393 0-.524-.39-.524-.977zM172.461 9.255V23.66l-1.537.913v.195h5.985v-.195l-1.602-.913v-7.202h5.036v7.202l-1.537.913v.195h5.986v-.195l-1.603-.945V9.223l1.603-.88v-.196h-5.986v.196l1.537.912v6.42h-5.036v-6.42l1.602-.912v-.196h-5.985v.196l1.537.912zm-19.264.033l-2.387 5.507-2.846-5.507 1.603-.913V8.18h-6.64v.195l1.963.945 3.957 7.398-3.565 6.876-2.322.978v.195h5.331v-.195l-2.06-.945 3.139-6.062 3.304 6.094-1.603.913v.195h6.378v-.195l-1.668-.978-4.481-7.984 2.846-6.322 2.191-.978v-.195h-5.2v.195l2.06.978zM138.904 5.41c.753 0 1.276-.652 1.276-1.467 0-.847-.523-1.434-1.276-1.434-.621 0-1.112.587-1.112 1.434 0 .815.491 1.467 1.112 1.467zm-3.859 0c.72 0 1.21-.652 1.21-1.467 0-.847-.49-1.434-1.21-1.434-.654 0-1.21.587-1.21 1.434 0 .815.556 1.467 1.21 1.467zM8.602.847c2.813.88 4.808 4.367 5.233 9.353h.196l.23-7.919C13.082 1.141 11.283 0 8.176 0 3.696 0-.033 4.334 0 9.06c.033 5.768 1.734 10.265 5.135 16.098h.85c4.416 0 8.079-3.715 8.962-9.19h-.196c-1.7 5.866-4.644 5.899-6.901 6.29-2.159-3.585-3.958-8.962-3.958-12.351 0-5.15 1.963-8.212 4.71-9.06zm68.422 8.408l1.602-.912v-.196h-6.574c-2.158 0-4.611.75-4.611 3.52 0 2.542 1.799 3.943 3.5 4.758l-3.01 7.202-1.439.945v.195h3.827l2.91-7.593 1.015.359v6.126l-1.537.913v.195h5.92v-.195l-1.603-.913V9.255zM64.464 23.66V8.05h-.523l-6.378 11.57V9.222l1.603-.88v-.196h-5.985v.196l1.537.912v16.001h.589l6.312-11.373v9.776l-1.537.913v.195h5.985v-.195l-1.602-.913zM50.467 9.255l1.93-.912v-.196H42.093v.196l1.603.912v6.387c0 2.705-.36 5.769-1.962 8.343h-2.159l.229 6.518H40l2.322-5.736h7.883l2.322 5.736h.196l.229-6.518h-2.486V9.255zm-10.891-.13l1.962-.782v-.196h-5.2v.196l2.322.814-2.518 11.471-3.663-11.503 1.668-.782v-.196h-6.542v.228l1.832.88 5.495 16.327c-.785 4.302-1.897 5.605-2.682 5.605-.753 0-1.276-1.075-1.734-2.281h-.261L32.15 35c1.57-1.662 2.453-3.357 3.5-8.05l3.924-17.825zm-16.517 1.173c0-1.043.654-1.369 1.407-1.369.686 0 1.177.587 1.504 1.173l1.7 3.227h.197l-.752-5.182H16.223l-.753 5.182h.197l1.7-3.227c.327-.586.818-1.173 1.505-1.173.752 0 1.406.326 1.406 1.369v13.361l-2.126.913v.195h7.032v-.195l-2.126-.913V10.298zm50.335 6.387c-2.354-.814-3.5-2.379-3.5-4.692 0-1.89.819-3.292 2.683-3.292.817 0 1.373.326 1.668.717v7.56l-.85-.293zm-30.09 7.3c.818-2.118 1.21-5.312 1.21-8.375V8.83h3.01v15.154h-4.22z" fill="#000"/></svg>