<svg width="233" height="40" fill="none" xmlns="http://www.w3.org/2000/svg"><path d="M70.436 24.818c0 3.036-2.865 5.235-6.896 5.235H54.1V11.205h9.122c3.925 0 6.683 2.094 6.683 5.026 0 1.99-1.06 3.246-2.652 3.98a4.88 4.88 0 013.183 4.607zm-12.2-10.157v4.083h4.88c1.485 0 2.44-.837 2.44-1.99 0-1.151-1.06-2.093-2.44-2.093h-4.88zm5.305 11.937c1.59 0 2.758-.943 2.758-2.304 0-1.361-1.061-2.304-2.759-2.304h-5.303v4.608h5.303zm22.488 3.35l-6.577-7.434h-1.06v7.434h-4.244V11.206h4.244v7.225h1.06l6.365-7.225h4.986l-7.956 9.005 8.698 9.738h-5.516zm5.516-9.319c0-5.655 4.244-9.738 10.184-9.738 5.94 0 10.183 4.083 10.183 9.738 0 5.654-4.243 9.738-10.183 9.738-5.94 0-10.184-4.084-10.184-9.738zm15.912 0c0-3.56-2.334-5.969-5.728-5.969-3.395 0-5.728 2.409-5.728 5.969 0 3.56 2.333 5.968 5.728 5.968 3.394 0 5.728-2.408 5.728-5.968zm20.685-9.424h4.244V29.95h-4.244v-7.54h-8.486v7.54h-4.243V11.204h4.243v7.435h8.486v-7.435zm13.366 18.743V14.975h-6.577v-3.77h17.291v3.77h-6.578v14.973h-4.136zm28.958-10.471v10.471h-3.076l-.849-2.932a6.999 6.999 0 01-6.046 3.351c-3.819 0-6.577-2.513-6.577-5.969 0-3.455 2.758-5.863 8.38-5.863h4.137c-.212-2.409-1.485-4.084-3.818-4.084-1.91 0-3.183 1.047-3.82 2.199l-3.818-.628c.955-3.246 4.243-5.131 7.85-5.131 4.667 0 7.637 3.141 7.637 8.586zm-4.137 2.304h-3.924c-3.183 0-4.244 1.047-4.244 2.408 0 1.57 1.273 2.618 3.394 2.618 2.758 0 4.774-1.99 4.774-5.026zm20.473 8.167l-6.576-7.434h-1.061v7.434h-4.243V11.206h4.243v7.225h1.061l6.364-7.225h4.986l-7.955 9.005 8.697 9.738h-5.516zm13.154 0V14.975h-6.576v-3.77h17.291v3.77h-6.577v14.973h-4.138zm31.93-8.168h-15.275c.425 2.933 2.546 4.817 5.728 4.817 2.228 0 3.926-.942 4.88-2.303l3.925.628c-1.379 3.56-5.092 5.445-9.123 5.445-5.728 0-9.865-4.084-9.865-9.738 0-5.655 4.137-9.738 9.865-9.738 5.729 0 9.865 4.083 9.865 9.528.106.524 0 .943 0 1.362zm-14.957-3.245h10.502c-.743-2.304-2.652-3.98-5.304-3.98-2.546-.104-4.561 1.571-5.198 3.98z" fill="#000"/><path d="M0 19.2C0 10.149 0 5.624 2.848 2.812 5.697 0 10.281 0 19.45 0h1.621c9.17 0 13.754 0 16.602 2.812 2.849 2.812 2.849 7.337 2.849 16.388v1.6c0 9.051 0 13.576-2.849 16.388C34.825 40 30.24 40 21.071 40h-1.62c-9.17 0-13.754 0-16.603-2.812C0 34.376 0 29.851 0 20.8v-1.6z" fill="#07F"/><path d="M21.56 28.816c-9.235 0-14.503-6.25-14.722-16.65h4.626c.152 7.633 3.563 10.867 6.264 11.533V12.166h4.356v6.583c2.668-.283 5.47-3.283 6.416-6.583h4.356c-.726 4.067-3.765 7.067-5.926 8.3 2.16 1 5.622 3.617 6.94 8.35h-4.796c-1.03-3.167-3.596-5.617-6.99-5.95v5.95h-.523z" fill="#fff"/></svg>